<svg id="Layer_1" data-name="Layer 1" xmlns="http://www.w3.org/2000/svg" viewBox="0 0 99.98 100"><defs><style>.cls-1{fill:#fff;}</style></defs><path class="cls-1" d="M64.72,94.6A46.47,46.47,0,0,1,50,96.94,47.12,47.12,0,0,1,5.81,66a1.53,1.53,0,0,0-1.93-.9A1.54,1.54,0,0,0,3,67,50,50,0,0,0,65.66,97.48a1.51,1.51,0,0,0,1-1.93A1.49,1.49,0,0,0,64.72,94.6Z" transform="translate(-0.01 0)"/><path class="cls-1" d="M91.81,22.57a1.57,1.57,0,0,0-2.11-.45,1.54,1.54,0,0,0-.43,2.11,47,47,0,0,1,0,51.54,1.48,1.48,0,0,0,.43,2.06,1.44,1.44,0,0,0,.83.27,1.66,1.66,0,0,0,1.28-.67,50.08,50.08,0,0,0,0-54.86Z" transform="translate(-0.01 0)"/><path class="cls-1" d="M3.88,34.93a1.91,1.91,0,0,0,.52,0,1.45,1.45,0,0,0,1.41-1A47,47,0,0,1,64.72,5.39a1.51,1.51,0,0,0,.94-2.88A50,50,0,0,0,3,33,1.53,1.53,0,0,0,3.88,34.93Z" transform="translate(-0.01 0)"/><path class="cls-1" d="M80,10.2A1.6,1.6,0,0,0,78.25,10L.84,48.65A1.47,1.47,0,0,0,0,50a1.51,1.51,0,0,0,.83,1.35L78.25,90a2.08,2.08,0,0,0,.68.18,1.49,1.49,0,0,0,1-.41,1.52,1.52,0,0,0,.38-1.67L66,50,80.34,11.91A1.61,1.61,0,0,0,80,10.2ZM63,49.46a1.65,1.65,0,0,0,0,1l13.2,35L4.91,50,76.16,14.43Z" transform="translate(-0.01 0)"/></svg>