<svg id="Layer_1" data-name="Layer 1" xmlns="http://www.w3.org/2000/svg" viewBox="0 0 99.98 98.81"><defs><style>.cls-1{fill:#FFF;}</style></defs><path class="cls-1" d="M100,47.38a1.45,1.45,0,0,0-.63-1.22L90,39.38a1.5,1.5,0,1,0-1.78,2.42l7.67,5.58-9.58,7.19-8.07-5.84a1.51,1.51,0,1,0-1.79,2.42l5.21,3.78h-15V51.65a1.52,1.52,0,0,0-3,0v3.28H36.36V42.57h6.06a1.51,1.51,0,1,0,0-3H35.37L23.65,30.78a1.47,1.47,0,0,0-1.82,0L.63,46.16A1.5,1.5,0,0,0,0,47.38a1.53,1.53,0,0,0,.61,1.21l11.51,8.63V97.87a1.52,1.52,0,0,0,1.53,1.53H86.36a1.5,1.5,0,0,0,1.5-1.53V57.22l11.51-8.63A1.53,1.53,0,0,0,100,47.38ZM83.52,58,73.43,73.28H26.58L16.46,58ZM18.3,54.93,33.35,44V54.93Zm4.41-21.09,9.6,7.2L13.65,54.57,4.07,47.38ZM15.15,96.35V61.5l9.36,14.12a1.53,1.53,0,0,0,1.26.67H74.24a1.62,1.62,0,0,0,1.26-.67L84.83,61.5V96.35Z" transform="translate(0 -0.6)"/><path class="cls-1" d="M47.66,39.1l-.81,8.32a1.61,1.61,0,0,0,.57,1.35,1.74,1.74,0,0,0,.94.32,1.29,1.29,0,0,0,.45-.1l8.68-2.74a2.63,2.63,0,0,1,1.66,0,23.79,23.79,0,0,0,9.69,1.08,23.42,23.42,0,0,0,12.93-41,23.4,23.4,0,0,0-34.53,31A2.74,2.74,0,0,1,47.66,39.1ZM46.25,21.61A20.49,20.49,0,0,1,63.76,3.81a18.23,18.23,0,0,1,2.75-.18A20.16,20.16,0,0,1,79.79,8.57,20.35,20.35,0,0,1,60.12,43.33a5.61,5.61,0,0,0-3.55.05l-6.48,2,.59-6a5.82,5.82,0,0,0-1-3.87A20.32,20.32,0,0,1,46.25,21.61Z" transform="translate(0 -0.6)"/><path class="cls-1" d="M55.58,36.9a1.42,1.42,0,0,0,1.05-.45L78.44,14.64a1.45,1.45,0,0,0,0-2.11,1.52,1.52,0,0,0-2.13,0L54.5,34.34a1.48,1.48,0,0,0,0,2.11A1.44,1.44,0,0,0,55.58,36.9Z" transform="translate(0 -0.6)"/><path class="cls-1" d="M69.31,27.37a5.6,5.6,0,0,0,0,7.91,5.65,5.65,0,0,0,7.92,0,5.56,5.56,0,0,0,0-7.91A5.65,5.65,0,0,0,69.31,27.37Zm5.78,5.8a2.6,2.6,0,0,1-3.64,0,2.56,2.56,0,0,1,0-3.64,2.48,2.48,0,0,1,1.82-.77,2.43,2.43,0,0,1,1.82.77A2.55,2.55,0,0,1,75.09,33.17Z" transform="translate(0 -0.6)"/><path class="cls-1" d="M59.67,23.32a5.46,5.46,0,0,0,4-1.66,5.58,5.58,0,0,0,0-7.92,5.75,5.75,0,0,0-7.92,0,5.61,5.61,0,0,0,0,7.92A5.49,5.49,0,0,0,59.67,23.32ZM57.85,15.9a2.54,2.54,0,0,1,1.82-.76,2.51,2.51,0,0,1,1.82.76,2.57,2.57,0,0,1,0,3.64,2.6,2.6,0,0,1-3.64,0A2.57,2.57,0,0,1,57.85,15.9Z" transform="translate(0 -0.6)"/></svg>