<svg id="Layer_1" data-name="Layer 1" xmlns="http://www.w3.org/2000/svg" viewBox="0 0 99.98 96.04"><defs><style>.cls-1{fill:#fff;}</style></defs><path class="cls-1" d="M100,35C100,17.05,82.56,2.48,61.17,2.48S22.37,17.05,22.37,35a28.45,28.45,0,0,0,.7,6.16C9.62,45.33,0,56.17,0,68.89,0,85.21,15.85,98.52,35.34,98.52a40.83,40.83,0,0,0,16.15-3.28L67.9,96.37a1.72,1.72,0,0,0,1.21-.5,1.54,1.54,0,0,0,.41-1.21L67.74,80.72a25.29,25.29,0,0,0,3-11.83c0-.81-.07-1.57-.14-2.34C87.41,63,100,50.23,100,35ZM67.65,68.89a22.48,22.48,0,0,1-2.81,10.8,1.82,1.82,0,0,0-.16.94l1.6,12.54-15-.94a1.21,1.21,0,0,0-.7.09,38,38,0,0,1-15.27,3.14C17.52,95.46,3,83.55,3,68.89c0-11.33,8.7-21,20.89-24.87a27.19,27.19,0,0,0,1.71,4l-2.25,15.7a1.48,1.48,0,0,0,.38,1.25,1.41,1.41,0,0,0,1.24.5L43.41,63.9a45.42,45.42,0,0,0,17.76,3.6,49.54,49.54,0,0,0,6.39-.45C67.62,67.68,67.65,68.26,67.65,68.89Zm-6.48-4.4A42,42,0,0,1,44.29,61a1.52,1.52,0,0,0-.63-.14h-.11l-16.93,1.4,2.05-14.3a1.6,1.6,0,0,0-.16-.95,24.7,24.7,0,0,1-3.1-12c0-16.24,16-29.45,35.76-29.45S97,18.75,97,35,80.89,64.49,61.17,64.49Z" transform="translate(0 -2.48)"/><path class="cls-1" d="M61.65,16.6A11.73,11.73,0,0,0,49.93,28.29a1.52,1.52,0,1,0,3,0,8.68,8.68,0,1,1,17.35,0c0,3.6-1.91,5-4.31,6.74-2.61,1.89-5.89,4.27-5.89,10a1.52,1.52,0,0,0,1.53,1.53,1.5,1.5,0,0,0,1.5-1.53c0-4.23,2.16-5.76,4.66-7.6s5.55-4,5.55-9.17A11.73,11.73,0,0,0,61.65,16.6Z" transform="translate(0 -2.48)"/><path class="cls-1" d="M60.57,51.76a1.48,1.48,0,0,0-.43,1.08,1.72,1.72,0,0,0,.43,1.08,1.52,1.52,0,0,0,1.08.4,1.57,1.57,0,0,0,1.08-.4,1.75,1.75,0,0,0,.45-1.08,1.58,1.58,0,0,0-.45-1.08A1.64,1.64,0,0,0,60.57,51.76Z" transform="translate(0 -2.48)"/><path class="cls-1" d="M21.16,77.53a1.52,1.52,0,0,0-.43,1.07,1.77,1.77,0,0,0,.43,1.09,1.64,1.64,0,0,0,2.15,0,1.61,1.61,0,0,0,.43-1.09,1.4,1.4,0,0,0-.43-1.07A1.53,1.53,0,0,0,21.16,77.53Z" transform="translate(0 -2.48)"/><path class="cls-1" d="M35.34,77.07a1.51,1.51,0,1,0,1.51,1.53A1.51,1.51,0,0,0,35.34,77.07Z" transform="translate(0 -2.48)"/><path class="cls-1" d="M47.37,77.53a1.46,1.46,0,0,0-.45,1.07,1.69,1.69,0,0,0,.45,1.09,1.85,1.85,0,0,0,1.08.4,1.82,1.82,0,0,0,1.06-.4A1.69,1.69,0,0,0,50,78.6a1.46,1.46,0,0,0-.45-1.07A1.51,1.51,0,0,0,47.37,77.53Z" transform="translate(0 -2.48)"/></svg>