<svg id="Layer_1" data-name="Layer 1" xmlns="http://www.w3.org/2000/svg" viewBox="0 0 99.98 100"><defs><style>.cls-1{fill:#FFF;}</style></defs><path class="cls-1" d="M99.9,99a1.21,1.21,0,0,0,.09-.49h0V49.82a.83.83,0,0,0,0-.31.3.3,0,0,0,0-.1,1.36,1.36,0,0,0-.23-.49v-.05a.08.08,0,0,1-.07,0c-.1-.09-.18-.22-.32-.27s-.07,0-.09-.09,0,0,0,0a1.78,1.78,0,0,0-.45-.08c0-.05-.07,0-.09-.05a1.38,1.38,0,0,0-.45.05.15.15,0,0,0-.12,0,1,1,0,0,0-.49.23L66,72.25,50.91,60.92a1.53,1.53,0,0,0-1.82,0L34,72.25,4,49.82l11.71-8.77A1.58,1.58,0,0,0,16,38.89a1.56,1.56,0,0,0-2.13-.26L.62,48.61H.57a1.66,1.66,0,0,0-.38.49l0,.09a1.42,1.42,0,0,0-.14.63V98.47H0A1.66,1.66,0,0,0,.08,99s0,.05.05.05,0,.09.06.13a1.1,1.1,0,0,0,.2.32l.14.13a1.46,1.46,0,0,0,.29.23c.07,0,.11,0,.16,0a1.21,1.21,0,0,0,.54.14h97a1.07,1.07,0,0,0,.52-.14c.07,0,.11,0,.16,0a1.55,1.55,0,0,0,.31-.23.63.63,0,0,0,.11-.13.72.72,0,0,0,.21-.32.6.6,0,0,0,.09-.13ZM97,52.83V95.46L68.51,74.14ZM31.49,74.14,3,95.46V52.83ZM6.06,96.94,50,64,93.92,96.94Z" transform="translate(-0.01)"/><path class="cls-1" d="M27,45h5.45v9.17a1.44,1.44,0,0,0,.81,1.3,1.37,1.37,0,0,0,.69.18,1.52,1.52,0,0,0,.88-.27L49.54,45H93.92A6.09,6.09,0,0,0,100,38.89V6.07A6.09,6.09,0,0,0,93.92,0H27a6.07,6.07,0,0,0-6,6.07V38.89A6.08,6.08,0,0,0,27,45ZM24,6.07a3,3,0,0,1,3-3H93.92a3,3,0,0,1,3,3V38.89a3,3,0,0,1-3,3H49.07a2,2,0,0,0-.9.28l-12.66,9V43.43A1.53,1.53,0,0,0,34,41.9H27a3,3,0,0,1-3-3Z" transform="translate(-0.01)"/><path class="cls-1" d="M74.11,13.35H87.76a1.47,1.47,0,0,0,1.51-1.48,1.51,1.51,0,0,0-1.51-1.53H74.11a1.5,1.5,0,0,0-1.5,1.53A1.46,1.46,0,0,0,74.11,13.35Z" transform="translate(-0.01)"/><path class="cls-1" d="M33.22,13.35H65a1.46,1.46,0,0,0,1.5-1.48A1.5,1.5,0,0,0,65,10.34H33.22a1.51,1.51,0,0,0-1.51,1.53A1.46,1.46,0,0,0,33.22,13.35Z" transform="translate(-0.01)"/><path class="cls-1" d="M87.76,21H54.42a1.52,1.52,0,0,0-1.51,1.53A1.49,1.49,0,0,0,54.42,24H87.76a1.49,1.49,0,0,0,1.51-1.49A1.52,1.52,0,0,0,87.76,21Z" transform="translate(-0.01)"/><path class="cls-1" d="M33.22,24H45.34a1.48,1.48,0,0,0,1.5-1.49A1.51,1.51,0,0,0,45.34,21H33.22a1.51,1.51,0,0,0-1.51,1.53A1.48,1.48,0,0,0,33.22,24Z" transform="translate(-0.01)"/><path class="cls-1" d="M33.22,34.58H75.64a1.51,1.51,0,1,0,0-3H33.22a1.51,1.51,0,1,0,0,3Z" transform="translate(-0.01)"/></svg>