<svg id="Layer_1" data-name="Layer 1" xmlns="http://www.w3.org/2000/svg" viewBox="0 0 99.98 100.77"><defs><style>.cls-1{fill:#FFF;}</style></defs><path class="cls-1" d="M98.05,78,83.45,63.4l0,0a25.64,25.64,0,0,0-.93-25.57c-.09-.13-.16-.22-.25-.36-.27-.41-.54-.81-.83-1.22-.12-.14-.21-.32-.35-.5L81,35.57c-.05-.1-.11-.19-.16-.28s-.36-.41-.52-.59-.3-.36-.45-.54L79.69,34c-.2-.23-.38-.41-.56-.59V17.48a.22.22,0,0,1,0-.09A1.4,1.4,0,0,0,79,17a.91.91,0,0,1-.07-.14,1.68,1.68,0,0,0-.3-.45L62.31,0a1.57,1.57,0,0,0-.43-.27.24.24,0,0,0-.16,0,1,1,0,0,0-.38-.1H11.17a1.52,1.52,0,0,0-1.51,1.5V9.23H1.54A1.53,1.53,0,0,0,0,10.77V98.89a1.53,1.53,0,0,0,1.54,1.5H68a1.53,1.53,0,0,0,1.55-1.5V90.73h8.11a1.51,1.51,0,0,0,1.52-1.49V80.71l8.09,8.12a6.69,6.69,0,0,0,9.34,0l1.49-1.5a6.61,6.61,0,0,0,0-9.34Zm-35.92-3.9V52.88h6.32a24.1,24.1,0,0,0,7.12,15.69A22.57,22.57,0,0,1,62.13,74.09Zm-3.06,0a22.44,22.44,0,0,1-13.44-5.52c.11-.1.2-.28.34-.37l.74-.81c.3-.37.62-.73.91-1.09a9.25,9.25,0,0,0,.66-.91c.27-.36.54-.72.79-1.13s.39-.59.57-1,.45-.82.66-1.22.31-.69.47-1,.34-.87.52-1.32.25-.63.37-1,.27-1,.38-1.46c.09-.31.18-.63.25-1,.11-.54.21-1.09.27-1.63,0-.27.09-.55.14-.86s0-.64.07-1h6.3ZM45.63,34.21a22.44,22.44,0,0,1,13.44-5.58V49.84h-6.3c-.05-.32-.05-.68-.07-1s-.09-.55-.14-.82c-.06-.54-.16-1.13-.27-1.68-.07-.32-.16-.59-.25-1s-.25-.95-.38-1.45c-.12-.32-.25-.63-.37-1s-.33-.91-.52-1.36l-.47-1c-.21-.41-.44-.86-.66-1.27s-.36-.59-.57-.91-.52-.81-.79-1.18a8.47,8.47,0,0,0-.66-.86,10.28,10.28,0,0,0-.91-1.09,9.76,9.76,0,0,0-.74-.81A2.4,2.4,0,0,0,45.63,34.21Zm16.5-5.58a22.39,22.39,0,0,1,13.44,5.58,24,24,0,0,0-7.12,15.63H62.13ZM79.76,39.06a2.08,2.08,0,0,0,.21.31,23,23,0,0,1,3.35,10.47H71.49a21.06,21.06,0,0,1,6.23-13.5.68.68,0,0,0,.12.13c.24.32.49.64.77,1A6,6,0,0,1,79,38,10.39,10.39,0,0,1,79.76,39.06Zm0,24.65c-.22.32-.47.69-.72,1l-.46.64a8.24,8.24,0,0,1-.65.77,2.47,2.47,0,0,1-.21.27,21,21,0,0,1-6.23-13.51H83.32A22.8,22.8,0,0,1,80,63.31,4.1,4.1,0,0,1,79.76,63.71Zm-37-26.52c.23-.26.45-.54.7-.81.09.09.23.18.32.27a9.58,9.58,0,0,0,.65.73c.28.32.55.63.8.95a7.62,7.62,0,0,1,.56.77c.25.32.48.68.71,1s.34.54.5.81.38.73.56,1.09.3.59.41.86.32.77.48,1.18l.29.86c.14.41.25.86.36,1.27s.16.55.23.82c.09.5.16.95.23,1.45,0,.23.09.49.11.72s0,.46,0,.68H37.83A22.58,22.58,0,0,1,42.75,37.19Zm6.93,15.69a6.75,6.75,0,0,1,0,.68c0,.27-.09.5-.11.73-.07.49-.14,1-.23,1.45-.07.32-.16.54-.23.86s-.22.82-.36,1.27c-.09.27-.2.54-.29.81s-.3.82-.48,1.18a7,7,0,0,1-.41.87c-.18.36-.36.72-.56,1.08s-.34.54-.5.82-.46.68-.71,1-.36.5-.56.73a8.62,8.62,0,0,1-.82,1c-.2.23-.41.46-.63.68a1.93,1.93,0,0,1-.32.32,8.71,8.71,0,0,1-.7-.86,22.53,22.53,0,0,1-4.92-12.65ZM73.92,16H62.76V4.78ZM66.43,97.3H3.06v-85h6.6v77a1.51,1.51,0,0,0,1.51,1.49H66.43Zm9.64-9.6H12.69v-85h47V17.48A1.55,1.55,0,0,0,61.24,19H76.07V30.71A25.82,25.82,0,0,0,60.61,25.5h0a25.66,25.66,0,0,0-18.29,7.61h0a25.32,25.32,0,0,0-1.95,2.18,25.71,25.71,0,0,0,0,32.14c.66.82,1.3,1.54,1.95,2.22h0a25.59,25.59,0,0,0,18.29,7.57h0a25.55,25.55,0,0,0,12-3l3.43,3.45Zm19.81-2.54L94.4,86.65a3.61,3.61,0,0,1-5,0L75.32,72.6a25.57,25.57,0,0,0,3.56-2.95,17.75,17.75,0,0,0,1.54-1.72c.13-.18.27-.32.41-.5s.09-.13.13-.18.12-.14.18-.23a3.18,3.18,0,0,0,.43-.63,1.79,1.79,0,0,0,.26-.32l14,14.1a3.51,3.51,0,0,1,0,5Z" transform="translate(0 0.39)"/><path class="cls-1" d="M21.83,19h29a1.52,1.52,0,0,0,1.52-1.54A1.49,1.49,0,0,0,50.84,16h-29a1.51,1.51,0,0,0-1.54,1.5A1.54,1.54,0,0,0,21.83,19Z" transform="translate(0 0.39)"/><path class="cls-1" d="M21.83,30.31H37.08a1.52,1.52,0,1,0,0-3H21.83a1.52,1.52,0,1,0,0,3Z" transform="translate(0 0.39)"/><path class="cls-1" d="M21.83,41.59H31a1.52,1.52,0,0,0,0-3H21.83a1.52,1.52,0,1,0,0,3Z" transform="translate(0 0.39)"/><path class="cls-1" d="M21.83,52.88h7.64A1.49,1.49,0,0,0,31,51.39a1.53,1.53,0,0,0-1.52-1.55H21.83a1.54,1.54,0,0,0-1.54,1.55A1.5,1.5,0,0,0,21.83,52.88Z" transform="translate(0 0.39)"/><path class="cls-1" d="M21.83,64.21H31a1.52,1.52,0,0,0,1.51-1.54A1.55,1.55,0,0,0,31,61.13H21.83a1.57,1.57,0,0,0-1.54,1.54A1.54,1.54,0,0,0,21.83,64.21Z" transform="translate(0 0.39)"/><path class="cls-1" d="M37.08,72.47H21.83A1.52,1.52,0,0,0,20.29,74a1.54,1.54,0,0,0,1.54,1.54H37.08A1.53,1.53,0,0,0,38.62,74,1.51,1.51,0,0,0,37.08,72.47Z" transform="translate(0 0.39)"/></svg>