<svg id="Layer_1" data-name="Layer 1" xmlns="http://www.w3.org/2000/svg" viewBox="0 0 99.98 91.99"><defs><style>.cls-1{fill:#FFF;}</style></defs><path class="cls-1" d="M90.89,4H9.09A9.11,9.11,0,0,0,0,13.14v5.17a1.51,1.51,0,0,0,1.51,1.53H15.13V87.08a1.54,1.54,0,0,0,1.53,1.53H60.11V94.5a1.5,1.5,0,0,0,.72,1.26,1.59,1.59,0,0,0,1.48.09l6.88-3.56,6.88,3.56a1.85,1.85,0,0,0,.7.13,1.25,1.25,0,0,0,.79-.22,1.5,1.5,0,0,0,.72-1.26V88.61H98.47A1.52,1.52,0,0,0,100,87.08V13.14A9.11,9.11,0,0,0,90.89,4ZM3,16.83V13.14a6.06,6.06,0,1,1,12.12,0v3.69Zm66.18,62a10.59,10.59,0,1,1,10.6-10.61A10.6,10.6,0,0,1,69.19,78.8Zm.7,10.44a1.82,1.82,0,0,0-.7-.14,1.71,1.71,0,0,0-.67.14L63.15,92V80.42a13.55,13.55,0,0,0,6,1.44,13.2,13.2,0,0,0,6.08-1.49V92ZM97,85.59H78.28V78.31a13.46,13.46,0,0,0,4.54-10.12A13.64,13.64,0,1,0,60.11,78.35v7.24H18.17V13.14A9.85,9.85,0,0,0,18,11.52s0-.09,0-.14A7.37,7.37,0,0,0,17.58,10s0-.14-.06-.19a10.51,10.51,0,0,0-.65-1.3.94.94,0,0,0-.12-.18,8.11,8.11,0,0,0-.83-1.12s0-.09-.07-.09h75A6.06,6.06,0,0,1,97,13.14Z" transform="translate(0 -4.01)"/><path class="cls-1" d="M92.09,14.26H90.2a1.54,1.54,0,0,0-1.53,1.53,1.51,1.51,0,0,0,1.53,1.53h.36v.36a1.52,1.52,0,0,0,1.53,1.53,1.5,1.5,0,0,0,1.5-1.53V15.79A1.54,1.54,0,0,0,92.09,14.26Z" transform="translate(0 -4.01)"/><path class="cls-1" d="M78.68,17.32h3.83A1.52,1.52,0,0,0,84,15.79a1.55,1.55,0,0,0-1.53-1.53H78.68a1.54,1.54,0,0,0-1.52,1.53A1.51,1.51,0,0,0,78.68,17.32Z" transform="translate(0 -4.01)"/><path class="cls-1" d="M67.17,17.32H71a1.51,1.51,0,0,0,1.53-1.53A1.54,1.54,0,0,0,71,14.26H67.17a1.54,1.54,0,0,0-1.53,1.53A1.51,1.51,0,0,0,67.17,17.32Z" transform="translate(0 -4.01)"/><path class="cls-1" d="M44.14,17.32H48a1.51,1.51,0,0,0,1.52-1.53A1.54,1.54,0,0,0,48,14.26H44.14a1.56,1.56,0,0,0-1.53,1.53A1.53,1.53,0,0,0,44.14,17.32Z" transform="translate(0 -4.01)"/><path class="cls-1" d="M55.66,17.32h3.82A1.53,1.53,0,0,0,61,15.79a1.56,1.56,0,0,0-1.53-1.53H55.66a1.54,1.54,0,0,0-1.53,1.53A1.51,1.51,0,0,0,55.66,17.32Z" transform="translate(0 -4.01)"/><path class="cls-1" d="M32.63,17.32h3.82A1.52,1.52,0,0,0,38,15.79a1.55,1.55,0,0,0-1.53-1.53H32.63a1.55,1.55,0,0,0-1.51,1.53A1.51,1.51,0,0,0,32.63,17.32Z" transform="translate(0 -4.01)"/><path class="cls-1" d="M24.94,14.26H23.05a1.55,1.55,0,0,0-1.51,1.53v1.89a1.51,1.51,0,1,0,3,0v-.36h.38a1.53,1.53,0,0,0,1.53-1.53A1.56,1.56,0,0,0,24.94,14.26Z" transform="translate(0 -4.01)"/><path class="cls-1" d="M23.05,73.41a1.55,1.55,0,0,0,1.51-1.53V68.23a1.51,1.51,0,0,0-3,0v3.65A1.55,1.55,0,0,0,23.05,73.41Z" transform="translate(0 -4.01)"/><path class="cls-1" d="M23.05,62.57A1.52,1.52,0,0,0,24.56,61V57.39a1.51,1.51,0,0,0-3,0V61A1.52,1.52,0,0,0,23.05,62.57Z" transform="translate(0 -4.01)"/><path class="cls-1" d="M23.05,51.73a1.52,1.52,0,0,0,1.51-1.53V46.6a1.51,1.51,0,1,0-3,0v3.6A1.52,1.52,0,0,0,23.05,51.73Z" transform="translate(0 -4.01)"/><path class="cls-1" d="M23.05,40.89a1.51,1.51,0,0,0,1.51-1.53v-3.6a1.51,1.51,0,1,0-3,0v3.6A1.51,1.51,0,0,0,23.05,40.89Z" transform="translate(0 -4.01)"/><path class="cls-1" d="M23.05,30.05a1.52,1.52,0,0,0,1.51-1.53v-3.6a1.51,1.51,0,1,0-3,0v3.6A1.52,1.52,0,0,0,23.05,30.05Z" transform="translate(0 -4.01)"/><path class="cls-1" d="M24.94,79.48h-.38v-.41a1.51,1.51,0,0,0-3,0V81a1.5,1.5,0,0,0,1.51,1.48h1.89a1.51,1.51,0,1,0,0-3Z" transform="translate(0 -4.01)"/><path class="cls-1" d="M48,79.48H44.14a1.51,1.51,0,1,0,0,3H48a1.51,1.51,0,1,0,0-3Z" transform="translate(0 -4.01)"/><path class="cls-1" d="M36.48,79.48H32.63a1.51,1.51,0,1,0,0,3h3.85a1.51,1.51,0,0,0,0-3Z" transform="translate(0 -4.01)"/><path class="cls-1" d="M92.09,77.59a1.52,1.52,0,0,0-1.53,1.48v.41H90.2a1.51,1.51,0,1,0,0,3h1.89A1.49,1.49,0,0,0,93.59,81V79.07A1.5,1.5,0,0,0,92.09,77.59Z" transform="translate(0 -4.01)"/><path class="cls-1" d="M92.09,23.39a1.53,1.53,0,0,0-1.53,1.53v3.6a1.53,1.53,0,0,0,1.53,1.53,1.51,1.51,0,0,0,1.5-1.53v-3.6A1.51,1.51,0,0,0,92.09,23.39Z" transform="translate(0 -4.01)"/><path class="cls-1" d="M92.09,45.07a1.53,1.53,0,0,0-1.53,1.53v3.6a1.53,1.53,0,0,0,1.53,1.53,1.51,1.51,0,0,0,1.5-1.53V46.6A1.51,1.51,0,0,0,92.09,45.07Z" transform="translate(0 -4.01)"/><path class="cls-1" d="M92.09,55.91a1.51,1.51,0,0,0-1.53,1.48V61a1.53,1.53,0,0,0,1.53,1.53A1.51,1.51,0,0,0,93.59,61V57.39A1.49,1.49,0,0,0,92.09,55.91Z" transform="translate(0 -4.01)"/><path class="cls-1" d="M92.09,34.23a1.52,1.52,0,0,0-1.53,1.53v3.6a1.52,1.52,0,0,0,1.53,1.53,1.5,1.5,0,0,0,1.5-1.53v-3.6A1.5,1.5,0,0,0,92.09,34.23Z" transform="translate(0 -4.01)"/><path class="cls-1" d="M92.09,66.75a1.51,1.51,0,0,0-1.53,1.48v3.65a1.56,1.56,0,0,0,1.53,1.53,1.54,1.54,0,0,0,1.5-1.53V68.23A1.49,1.49,0,0,0,92.09,66.75Z" transform="translate(0 -4.01)"/><path class="cls-1" d="M70.74,27.89a1.5,1.5,0,0,0-1.5-1.53h-23a1.51,1.51,0,1,0,0,3h23A1.49,1.49,0,0,0,70.74,27.89Z" transform="translate(0 -4.01)"/><path class="cls-1" d="M82.64,36.93H55A1.53,1.53,0,0,0,55,40H82.64a1.53,1.53,0,0,0,0-3.06Z" transform="translate(0 -4.01)"/><path class="cls-1" d="M32.81,36.93a1.53,1.53,0,0,0,0,3.06H47a1.53,1.53,0,0,0,0-3.06Z" transform="translate(0 -4.01)"/><path class="cls-1" d="M82.64,47.55H68.88a1.51,1.51,0,1,0,0,3H82.64a1.51,1.51,0,1,0,0-3Z" transform="translate(0 -4.01)"/><path class="cls-1" d="M61,47.55H32.81a1.51,1.51,0,1,0,0,3H61a1.51,1.51,0,1,0,0-3Z" transform="translate(0 -4.01)"/><path class="cls-1" d="M50.75,58.12H32.81a1.56,1.56,0,0,0-1.53,1.53,1.53,1.53,0,0,0,1.53,1.52H50.75a1.5,1.5,0,0,0,1.51-1.52A1.53,1.53,0,0,0,50.75,58.12Z" transform="translate(0 -4.01)"/><path class="cls-1" d="M69.19,62.12a6.07,6.07,0,1,0,6,6.07A6.09,6.09,0,0,0,69.19,62.12Zm0,9.13a3.06,3.06,0,0,1-3-3.06,3,3,0,0,1,6,0A3.06,3.06,0,0,1,69.19,71.25Z" transform="translate(0 -4.01)"/><path class="cls-1" d="M40.88,69.13a6.49,6.49,0,0,1-7.17,0,1.52,1.52,0,0,0-2.12.32,1.48,1.48,0,0,0,.3,2.11,9.37,9.37,0,0,0,10.79,0,6.46,6.46,0,0,1,7.15,0A1.53,1.53,0,0,0,52,71.29a1.56,1.56,0,0,0-.32-2.16A9.47,9.47,0,0,0,40.88,69.13Z" transform="translate(0 -4.01)"/></svg>