<svg id="Layer_1" data-name="Layer 1" xmlns="http://www.w3.org/2000/svg" viewBox="0 0 115.56 100"><defs><style>.cls-1{fill:#fff;}</style></defs><path class="cls-1" d="M107.71,9.52h-3.53V1.72A1.74,1.74,0,0,0,102.44,0C73,0,61.38,6.71,57.79,9.52,54.2,6.71,42.54,0,13.15,0a1.76,1.76,0,0,0-1.77,1.72v7.8H7.87A7.87,7.87,0,0,0,0,17.36V92.15A7.88,7.88,0,0,0,7.87,100H84.45a1.74,1.74,0,0,0,1.74-1.77,1.7,1.7,0,0,0-1.74-1.72H63.51A51.52,51.52,0,0,1,77.59,92,1.75,1.75,0,0,0,77,88.56c-9.07,1.77-14.45,4.32-17.42,6.13V77.81a27.84,27.84,0,0,0,13.41-4.47L76.6,77l-.75.78a1.67,1.67,0,0,0-.52,1.2,1.73,1.73,0,0,0,.52,1.25L92.59,96.93a7.28,7.28,0,0,0,10.39,0l1.61-1.56a7.44,7.44,0,0,0,0-10.45L87.86,68.19a1.75,1.75,0,0,0-2.47,0l-.75.78L81,65.28A27.49,27.49,0,0,0,59.53,22.77V12.53c2.06-1.77,11.93-8.74,41.17-9V74.06a1.74,1.74,0,1,0,3.48,0v-61h3.53a4.35,4.35,0,0,1,4.37,4.31V92.15a4.33,4.33,0,0,1-1,2.7A1.75,1.75,0,0,0,113.84,97a7.84,7.84,0,0,0,1.72-4.89V17.36A7.85,7.85,0,0,0,107.71,9.52Zm-92.82-6c29,.25,39.08,7.27,41.13,9V22.77a27.59,27.59,0,0,0,0,55V94.69c-4.93-3.06-16.63-8-41.13-8.26Zm-7,93a4.37,4.37,0,0,1-4.36-4.36V17.36a4.33,4.33,0,0,1,4.36-4.31h3.51v75.1a1.77,1.77,0,0,0,1.77,1.76c21.83,0,33.36,3.8,38.9,6.6Zm94.23-9.09a3.86,3.86,0,0,1,0,5.46l-1.58,1.56a3.77,3.77,0,0,1-5.46,0L79.57,79l3.51-3.48,2.81-2.81h0l.72-.73Zm-24.79-23a1.78,1.78,0,0,0,.15,2.29l4.71,4.72L80.61,73l-1.54,1.56L74.4,69.85a1.72,1.72,0,0,0-1.25-.52,1.94,1.94,0,0,0-1,.31,23.91,23.91,0,0,1-31.24-2.33,24.09,24.09,0,0,1,34.05-34.1A23.93,23.93,0,0,1,77.31,64.45Z"/><path class="cls-1" d="M22.47,17.78a100.26,100.26,0,0,1,20.56,3,1.38,1.38,0,0,0,.45.05,1.75,1.75,0,0,0,1.68-1.3,1.73,1.73,0,0,0-1.22-2.13,104.62,104.62,0,0,0-21.28-3.07,1.69,1.69,0,0,0-1.85,1.62A1.76,1.76,0,0,0,22.47,17.78Z"/><path class="cls-1" d="M22.47,30c3,.21,5.85.41,8.56.78h.2a1.75,1.75,0,0,0,.21-3.48c-2.78-.31-5.74-.63-8.78-.78A1.74,1.74,0,1,0,22.47,30Z"/><path class="cls-1" d="M22.47,42.26c1.05.1,2.09.15,3.08.2h.1a1.74,1.74,0,0,0,1.79-1.61A1.77,1.77,0,0,0,25.83,39c-1,0-2.08-.16-3.17-.2a1.74,1.74,0,1,0-.19,3.48Z"/><path class="cls-1" d="M22.47,54.52l2.14.16h.13a1.78,1.78,0,0,0,1.74-1.61,1.85,1.85,0,0,0-1.64-1.93c-.7,0-1.43,0-2.18-.1a1.74,1.74,0,1,0-.19,3.48Z"/><path class="cls-1" d="M28.56,63.72l-5.9-.47a1.8,1.8,0,0,0-1.85,1.67,1.76,1.76,0,0,0,1.66,1.87c2,.1,3.91.26,5.75.41h.18a1.71,1.71,0,0,0,1.74-1.56A1.77,1.77,0,0,0,28.56,63.72Z"/><path class="cls-1" d="M45.76,38.1a17.2,17.2,0,0,0,0,24.27A17.16,17.16,0,0,0,70,38.1,17.26,17.26,0,0,0,45.76,38.1Zm21.8,2.49a13.65,13.65,0,1,1-9.66-4A13.69,13.69,0,0,1,67.56,40.59Z"/><path class="cls-1" d="M92.93,14.29a104.62,104.62,0,0,0-21.29,3.07,1.74,1.74,0,0,0,.45,3.43,1.48,1.48,0,0,0,.46-.05,100.26,100.26,0,0,1,20.56-3,1.78,1.78,0,0,0,1.66-1.87A1.67,1.67,0,0,0,92.93,14.29Z"/><path class="cls-1" d="M92.93,26.51c-3.07.15-6,.47-8.79.78a1.75,1.75,0,0,0,.21,3.48h.21c2.7-.37,5.58-.57,8.55-.78a1.76,1.76,0,0,0,1.66-1.82A1.73,1.73,0,0,0,92.93,26.51Z"/><path class="cls-1" d="M92.93,38.78c-1.09,0-2.16.15-3.17.2a1.78,1.78,0,0,0-1.62,1.87,1.74,1.74,0,0,0,1.74,1.61H90c1-.05,2.05-.1,3.12-.2a1.78,1.78,0,0,0,1.66-1.88A1.73,1.73,0,0,0,92.93,38.78Z"/><path class="cls-1" d="M92.93,51c-.76.05-1.49.1-2.21.1a1.8,1.8,0,0,0-1.61,1.93,1.75,1.75,0,0,0,1.74,1.61H91l2.13-.16A1.74,1.74,0,1,0,92.93,51Z"/></svg>