<svg id="Layer_1" data-name="Layer 1" xmlns="http://www.w3.org/2000/svg" viewBox="0 0 39.56 39.56"><defs><style>.cls-1{fill:none;stroke:#fff;stroke-miterlimit:10;stroke-width:1.5px;}.cls-2{fill:#fff;}</style></defs><path class="cls-1" d="M50,69h0A19,19,0,0,1,31,50h0A19,19,0,0,1,50,31h0A19,19,0,0,1,69,50h0A19,19,0,0,1,50,69Z" transform="translate(-30.22 -30.22)"/><path class="cls-2" d="M50,41.45c2.79,0,3.12,0,4.22.06a5.38,5.38,0,0,1,1.93.36,3.45,3.45,0,0,1,2,2,5.38,5.38,0,0,1,.36,1.93c0,1.1.06,1.43.06,4.22s0,3.12-.06,4.22a5.38,5.38,0,0,1-.36,1.93,3.45,3.45,0,0,1-2,2,5.38,5.38,0,0,1-1.93.36c-1.1,0-1.43.06-4.22.06s-3.12,0-4.22-.06a5.38,5.38,0,0,1-1.93-.36,3.45,3.45,0,0,1-2-2,5.38,5.38,0,0,1-.36-1.93c0-1.1-.06-1.43-.06-4.22s0-3.12.06-4.22a5.38,5.38,0,0,1,.36-1.93,3.45,3.45,0,0,1,2-2,5.38,5.38,0,0,1,1.93-.36c1.1,0,1.43-.06,4.22-.06m0-1.88c-2.83,0-3.19,0-4.3.06a7.83,7.83,0,0,0-2.53.48,5.4,5.4,0,0,0-3.06,3.06,7.83,7.83,0,0,0-.48,2.53c-.05,1.11-.06,1.47-.06,4.3s0,3.19.06,4.3a8,8,0,0,0,.48,2.54,5.42,5.42,0,0,0,3.06,3,7.83,7.83,0,0,0,2.53.48c1.11.05,1.47.06,4.3.06s3.19,0,4.3-.06a7.83,7.83,0,0,0,2.53-.48,5.42,5.42,0,0,0,3.06-3,8,8,0,0,0,.48-2.54c.05-1.11.06-1.47.06-4.3s0-3.19-.06-4.3a7.83,7.83,0,0,0-.48-2.53,5.4,5.4,0,0,0-3.06-3.06,7.83,7.83,0,0,0-2.53-.48c-1.11-.05-1.47-.06-4.3-.06" transform="translate(-30.22 -30.22)"/><path class="cls-2" d="M50,44.64A5.36,5.36,0,1,0,55.36,50,5.36,5.36,0,0,0,50,44.64m0,8.84A3.48,3.48,0,1,1,53.48,50,3.48,3.48,0,0,1,50,53.48" transform="translate(-30.22 -30.22)"/><path class="cls-2" d="M56.82,44.43a1.25,1.25,0,1,1-1.25-1.25,1.25,1.25,0,0,1,1.25,1.25" transform="translate(-30.22 -30.22)"/></svg>