<?xml version="1.0" encoding="utf-8"?>
<!-- Generator: Adobe Illustrator 25.4.1, SVG Export Plug-In . SVG Version: 6.00 Build 0)  -->
<svg version="1.1" id="Layer_1" xmlns="http://www.w3.org/2000/svg" xmlns:xlink="http://www.w3.org/1999/xlink" x="0px" y="0px"
	 viewBox="0 0 39.6 39.6" style="enable-background:new 0 0 39.6 39.6;" xml:space="preserve">
<style type="text/css">
	.st0{fill:none;stroke:#FFFFFF;stroke-width:1.5;stroke-miterlimit:10;}
	.st1{fill:#FFFFFF;}
</style>
<g id="XMLID_2094_">
	<path id="XMLID_2101_" class="st0" d="M19.8,38.8L19.8,38.8c-10.5,0-19-8.5-19-19v0c0-10.5,8.5-19,19-19h0c10.5,0,19,8.5,19,19v0
		C38.8,30.3,30.3,38.8,19.8,38.8z"/>
	<g id="XMLID_2095_">
		<g id="XMLID_2097_">
			<rect id="XMLID_2100_" x="11.2" y="15.5" class="st1" width="3.9" height="12.7"/>
			<path id="XMLID_2098_" class="st1" d="M13.1,13.9c1.3,0,2.3-1.1,2.3-2.3s-1-2.3-2.3-2.3c-1.3,0-2.3,1.1-2.3,2.3
				S11.8,13.9,13.1,13.9z"/>
		</g>
		<path id="XMLID_2096_" class="st1" d="M21.4,21.6c0-1.8,0.8-2.9,2.4-2.9c1.4,0,2.1,1,2.1,2.9c0,1.8,0,6.7,0,6.7h3.9
			c0,0,0-4.6,0-8.1c0-3.4-1.9-5.1-4.6-5.1c-2.7,0-3.8,2.1-3.8,2.1v-1.7h-3.8v12.7h3.8C21.4,28.3,21.4,23.5,21.4,21.6z"/>
	</g>
</g>
</svg>
