<svg id="Layer_1" data-name="Layer 1" xmlns="http://www.w3.org/2000/svg" viewBox="0 0 39.56 39.56"><defs><style>.cls-1{fill:none;stroke:#fff;stroke-miterlimit:10;stroke-width:1.5px;}.cls-2{fill:#fff;}</style></defs><path class="cls-1" d="M50,69h0A19,19,0,0,1,31,50h0A19,19,0,0,1,50,31h0A19,19,0,0,1,69,50h0A19,19,0,0,1,50,69Z" transform="translate(-30.22 -30.22)"/><path class="cls-2" d="M43.91,51.77a.45.45,0,0,0,.65-.33c.06-.22.2-.8.26-1a.62.62,0,0,0-.18-.72,3.78,3.78,0,0,1-.86-2.55,6.15,6.15,0,0,1,6.39-6.22c3.49,0,5.41,2.13,5.41,5,0,3.74-1.66,6.9-4.12,6.9a2,2,0,0,1-2.05-2.5c.39-1.64,1.15-3.42,1.15-4.61a1.73,1.73,0,0,0-1.75-1.94c-1.39,0-2.51,1.43-2.51,3.36a4.93,4.93,0,0,0,.42,2l-1.67,7.07a14.39,14.39,0,0,0,0,4.94.17.17,0,0,0,.31.07A13.92,13.92,0,0,0,47.66,57c.16-.57.91-3.56.91-3.56A3.72,3.72,0,0,0,51.74,55c4.18,0,7-3.8,7-8.89,0-3.85-3.26-7.44-8.22-7.44-6.17,0-9.28,4.42-9.28,8.11C41.25,49,42.1,51,43.91,51.77Z" transform="translate(-30.22 -30.22)"/></svg>