<svg id="Layer_1" data-name="Layer 1" xmlns="http://www.w3.org/2000/svg" viewBox="0 0 99.02 99.22"><defs><style>.cls-1,.cls-2{fill:#FFF;}.cls-2{stroke:#fff;stroke-miterlimit:10;}</style></defs><path class="cls-1" d="M97.53,7.75H51V1.51a1.51,1.51,0,0,0-3-.35,2,2,0,0,0,0,.35V7.75H1.53A1.5,1.5,0,0,0,0,9.22V72.27A1.49,1.49,0,0,0,1.45,73.8H26l-7.9,23.26A1.5,1.5,0,0,0,19.06,99h0a1.63,1.63,0,0,0,.49,0A1.43,1.43,0,0,0,21,98l8.27-24.24H48V97.51a1.51,1.51,0,0,0,3,0V73.8H69.86L78.1,98a1.52,1.52,0,0,0,1.43,1A1.63,1.63,0,0,0,80,99,1.5,1.5,0,0,0,81,97.08h0l-7.9-23.26H97.53A1.49,1.49,0,0,0,99,72.33v-63a1.5,1.5,0,0,0-1.44-1.56ZM96,70.75H3v-60H96Z" transform="translate(0 0.17)"/><path class="cls-2" d="M49.52,17c-13.09,0-23.74,8.58-23.74,19.13v9.2c0,5.49,2.88,10.44,7.48,13.92a.35.35,0,0,0,.13.11,26.89,26.89,0,0,0,16.13,5.12c13.08,0,23.74-8.58,23.74-19.15v-9.2C73.26,25.59,62.6,17,49.52,17Zm22.3,19.13c0,8.43-7.5,15.52-17.48,17.27L52.4,45.19a11,11,0,0,0,7.94-5.87A7.85,7.85,0,0,0,61,36.14c0-4-3.05-7.35-7.35-8.71l3.1-8C65.52,21.81,71.82,28.39,71.82,36.14ZM39.54,37.23a6.68,6.68,0,0,1-.09-1.09c0-4.36,4.51-7.9,10.07-7.9a13.27,13.27,0,0,1,2.47.23v4.3l-.49-.07a1.55,1.55,0,0,0-.31,0,2.57,2.57,0,0,0-.55-.06c-.1,0-.19,0-.28,0l-.84,0-.84,0-.27,0a2.69,2.69,0,0,0-.57.06,1.76,1.76,0,0,0-.31,0l-.51.07-.31.06-.5.13-.3.06c-.17,0-.34.11-.52.15a2.5,2.5,0,0,0-.25.09l-.67.25a.11.11,0,0,0-.08,0,7.24,7.24,0,0,0-.7.32,1.66,1.66,0,0,0-.24.11c-.15.09-.3.15-.45.24a1.23,1.23,0,0,0-.25.17,2.82,2.82,0,0,0-.41.23,2.33,2.33,0,0,1-.26.17c-.11.09-.24.17-.36.28a1.24,1.24,0,0,0-.23.17c-.13.11-.26.19-.38.3a1.45,1.45,0,0,1-.19.17,5.1,5.1,0,0,0-.46.47.08.08,0,0,0-.06,0,6.44,6.44,0,0,0-.48.56l-.14.17A1.76,1.76,0,0,1,39.54,37.23Zm19.94,0a2.43,2.43,0,0,0-.24-.32,1.58,1.58,0,0,0-.12-.15,6.44,6.44,0,0,0-.48-.56s0,0,0,0l-.48-.47a1.45,1.45,0,0,1-.19-.17l-.38-.3-.22-.17a4.73,4.73,0,0,0-.39-.28c-.08-.06-.17-.1-.25-.17l-.41-.26L56,34.2c-.15-.09-.31-.15-.46-.24a1.5,1.5,0,0,0-.22-.11,6.58,6.58,0,0,0-.72-.32.08.08,0,0,0-.07,0l-.68-.25a2.5,2.5,0,0,0-.25-.09l-.21-.06V28.86c3.62,1.19,6.16,4,6.16,7.28A5.76,5.76,0,0,1,59.48,37.23ZM40.23,38.87c.05-.11.11-.19.16-.28l.17-.27.18-.26a2,2,0,0,1,.2-.28,2.36,2.36,0,0,1,.2-.23,1,1,0,0,1,.22-.26c.08-.08.15-.17.22-.23a3.07,3.07,0,0,1,.25-.26,2.25,2.25,0,0,0,.24-.21c.09-.09.19-.15.27-.22a2.39,2.39,0,0,1,.26-.21l.3-.21.26-.17.32-.2a2.75,2.75,0,0,0,.29-.17,3.41,3.41,0,0,0,.33-.17l.3-.15c.12,0,.24-.11.35-.15l.31-.13a3,3,0,0,1,.39-.14l.31-.11c.13,0,.26-.09.39-.11a2.14,2.14,0,0,1,.32-.08,2.1,2.1,0,0,1,.42-.09,1.67,1.67,0,0,1,.32-.08l.45-.07a1.55,1.55,0,0,1,.31,0l.5-.06a.83.83,0,0,0,.27,0c.25,0,.52,0,.78,0s.52,0,.78,0a.8.8,0,0,0,.26,0l.51.06a1.36,1.36,0,0,1,.3,0l.45.07a1.59,1.59,0,0,1,.33.08,2.1,2.1,0,0,1,.42.09,1.77,1.77,0,0,1,.31.08c.14,0,.26.09.39.11l.32.11a2.46,2.46,0,0,1,.38.14c.1,0,.2.09.31.13s.23.11.36.15l.29.15a3.59,3.59,0,0,0,.34.17l.28.17.33.2c.08,0,.17.12.25.17l.3.21.26.19c.09.09.19.15.28.24l.23.21.26.26c.07.06.14.15.21.21s.16.17.24.28.12.15.19.23a3.39,3.39,0,0,1,.2.28,1.92,1.92,0,0,1,.17.26,2.11,2.11,0,0,1,.18.27,1.25,1.25,0,0,1,.15.28,1.19,1.19,0,0,1,.09.15c-1.52,3-5.23,5-9.37,5s-7.85-2-9.37-5A1.09,1.09,0,0,0,40.23,38.87Zm9.29,6.62A9.91,9.91,0,0,0,51,45.4l1.94,8.22a25.18,25.18,0,0,1-3.39.22A25.78,25.78,0,0,1,35,49.53l7.23-6.18A13.25,13.25,0,0,0,49.52,45.49Zm0-27a27.24,27.24,0,0,1,5.85.64l-3.1,8a14.65,14.65,0,0,0-2.75-.27C43.17,26.79,38,31,38,36.14a7.86,7.86,0,0,0,.69,3.18h0A9.36,9.36,0,0,0,41,42.44l-7.27,6.21c-4-3.2-6.54-7.62-6.54-12.51C27.22,26.38,37.22,18.44,49.52,18.44Zm-22.3,26.9V42.71a19.31,19.31,0,0,0,5.84,7.2v7.37A15.84,15.84,0,0,1,27.22,45.34ZM34.5,58.41V51a27.9,27.9,0,0,0,18.58,4.09v7.78a27.77,27.77,0,0,1-3.56.23A25.65,25.65,0,0,1,34.5,58.41ZM71.82,45.34c0,8.41-7.41,15.46-17.31,17.25V54.84c8-1.39,14.53-6,17.31-12.13Z" transform="translate(0 0.17)"/></svg>