<svg id="Layer_1" data-name="Layer 1" xmlns="http://www.w3.org/2000/svg" viewBox="0 0 99.98 96.82"><defs><style>.cls-1{fill:#FFF;}</style></defs><path class="cls-1" d="M50,30.33a15.13,15.13,0,0,0-2,30.13.33.33,0,0,0,.21,0,1.54,1.54,0,0,0,1.51-1.31,1.56,1.56,0,0,0-1.31-1.71A12.12,12.12,0,1,1,62,43.82a1.58,1.58,0,0,0,1.71,1.31A1.55,1.55,0,0,0,65,43.42,15.19,15.19,0,0,0,50,30.33Z" transform="translate(0 -1.59)"/><path class="cls-1" d="M99.74,24l0-.09-.2-.23s-.07,0-.09-.09-.07,0-.12-.08-.11-.05-.15-.1h0L50.59,1.69a2,2,0,0,0-1.24,0L.9,23.36s-.07,0-.09.05a.14.14,0,0,0-.13.05s-.05,0-.07.08l-.14.09c-.06.09-.11.14-.18.23L.2,24a1.38,1.38,0,0,0-.08.27l-.07.09a1.83,1.83,0,0,0,0,.4V75.25a1.55,1.55,0,0,0,.9,1.4L49.35,98.32h.09a2.54,2.54,0,0,0,.54.09h0a2.34,2.34,0,0,0,.54-.09h.09L99.08,76.65a1.59,1.59,0,0,0,.9-1.4V24.71A1.37,1.37,0,0,0,99.74,24ZM50,4.75l19.16,8.54-7.36,3.29a1.54,1.54,0,0,0-.76,2,1.56,1.56,0,0,0,1.39.9,1.47,1.47,0,0,0,.61-.14L72.87,15l21.87,9.75L71.79,35a24.2,24.2,0,0,0-43.62,0l-23-10.26Zm2.43,43.16,29.05,10L68.78,63.52a1.4,1.4,0,0,0-.77.76L62.39,77Zm18,3-20-6.87A1.52,1.52,0,0,0,48.54,46l6.86,20a21,21,0,0,1-5.42.77A21.23,21.23,0,1,1,71.2,45.49,20.56,20.56,0,0,1,70.46,50.92ZM27.25,85.1V62a1.51,1.51,0,0,0-1.51-1.53A1.53,1.53,0,0,0,24.21,62V83.75L3,74.26V27.1L25.74,37.21,27,37.8A24.17,24.17,0,0,0,48.48,69.63v25ZM97,74.26,51.51,94.59v-25a22.12,22.12,0,0,0,4.88-.81l4.38,12.77a1.45,1.45,0,0,0,1.38,1h.06a1.53,1.53,0,0,0,1.37-.9l7-15.64,15.65-7a1.5,1.5,0,0,0,.9-1.44,1.45,1.45,0,0,0-1-1.35L73.34,51.87A23.85,23.85,0,0,0,73,37.8L97,27.1Z" transform="translate(0 -1.59)"/></svg>