<svg id="Layer_1" data-name="Layer 1" xmlns="http://www.w3.org/2000/svg" viewBox="0 0 99.98 100.05"><defs><style>.cls-1{fill:#FFF;}</style></defs><path class="cls-1" d="M42.13,63.54a7.75,7.75,0,1,0,7.74-7.74A7.79,7.79,0,0,0,42.13,63.54Zm12.46,0a4.72,4.72,0,1,1-4.72-4.67A4.73,4.73,0,0,1,54.59,63.54Z" transform="translate(0 0.02)"/><path class="cls-1" d="M17.56,71.33A7.77,7.77,0,1,0,9.8,63.54,7.79,7.79,0,0,0,17.56,71.33Zm0-12.46a4.7,4.7,0,1,1-4.72,4.67A4.71,4.71,0,0,1,17.56,58.87Z" transform="translate(0 0.02)"/><path class="cls-1" d="M82.18,71.33a7.77,7.77,0,1,0-7.73-7.79A7.78,7.78,0,0,0,82.18,71.33Zm0-12.46a4.7,4.7,0,1,1-4.72,4.67A4.71,4.71,0,0,1,82.18,58.87Z" transform="translate(0 0.02)"/><path class="cls-1" d="M91.37,73.89H73.26a8.62,8.62,0,0,0-7.11,3.73A8.62,8.62,0,0,0,59,73.89H40.93a8.67,8.67,0,0,0-7.1,3.73,8.64,8.64,0,0,0-7.11-3.73H8.64A8.63,8.63,0,0,0,0,82.52v16A1.51,1.51,0,0,0,1.53,100H98.47A1.51,1.51,0,0,0,100,98.5v-16A8.63,8.63,0,0,0,91.37,73.89ZM26.72,82.21a1.55,1.55,0,0,0-1.51,1.53V97H10.14V83.74a1.54,1.54,0,0,0-1.5-1.53,1.56,1.56,0,0,0-1.53,1.53V97H3V82.52a5.62,5.62,0,0,1,5.6-5.62H26.72a5.61,5.61,0,0,1,5.6,5.62V97H28.25V83.74A1.55,1.55,0,0,0,26.72,82.21Zm32.32,0a1.54,1.54,0,0,0-1.5,1.53V97H42.46V83.74a1.52,1.52,0,1,0-3,0V97H35.36V82.52a5.6,5.6,0,0,1,5.57-5.62H59a5.62,5.62,0,0,1,5.6,5.62V97H60.55V83.74A1.54,1.54,0,0,0,59,82.21ZM96.94,97H92.87V83.74a1.52,1.52,0,1,0-3,0V97H74.76V83.74a1.51,1.51,0,1,0-3,0V97H67.66V82.52a5.62,5.62,0,0,1,5.6-5.62H91.37a5.6,5.6,0,0,1,5.57,5.62Z" transform="translate(0 0.02)"/><path class="cls-1" d="M49.75,15.86a7.94,7.94,0,1,0-7.94-7.92A7.93,7.93,0,0,0,49.75,15.86ZM49.75,3a4.91,4.91,0,1,1-4.9,4.91A4.93,4.93,0,0,1,49.75,3Z" transform="translate(0 0.02)"/><path class="cls-1" d="M25.75,44h3.67V62.78a1.51,1.51,0,1,0,3,0V44H67.3V62.78a1.52,1.52,0,1,0,3,0V44h3.92a1.49,1.49,0,0,0,1.53-1.48A1.53,1.53,0,0,0,74.25,41H68V27.46A8.85,8.85,0,0,0,59.2,18.6H40.55a8.86,8.86,0,0,0-8.86,8.86V41H25.75a1.51,1.51,0,0,0-1.51,1.53A1.48,1.48,0,0,0,25.75,44Zm9-16.51a5.82,5.82,0,0,1,5.82-5.8h7.9V38.13a1.52,1.52,0,1,0,3,0V21.66H59.2A5.83,5.83,0,0,1,65,27.46V41H60.7V28.72a1.51,1.51,0,0,0-3,0V41H42.06V28.72a1.52,1.52,0,0,0-3,0V41H34.73Z" transform="translate(0 0.02)"/></svg>