<svg id="Layer_1" data-name="Layer 1" xmlns="http://www.w3.org/2000/svg" viewBox="0 0 1574.99 1566.41"><defs><style>.cls-1{fill:#e1ecfc;}.cls-2{fill:#f6a77c;}.cls-3{fill:#c46f5b;}.cls-4{fill:#6e3726;}.cls-5{fill:#3d4869;}.cls-6{fill:#6475ab;}.cls-7{fill:#4f5d8c;}.cls-8{fill:#824836;}.cls-9{fill:#f7e7dc;}.cls-10{fill:#e3dfcf;}.cls-11{fill:#fff9f5;}.cls-12{fill:#c97636;}.cls-13{fill:#ebd2c0;}.cls-14{fill:#b36325;}.cls-15{fill:#522643;}.cls-16{fill:#ad8a6f;}.cls-17{fill:#c4a58d;}.cls-18{fill:#fffcfa;}.cls-19{fill:#6b3423;}.cls-20{fill:#442322;}.cls-21{fill:#e8ddd5;}.cls-22{fill:#e37f54;}.cls-23{fill:#301716;}.cls-24{fill:#e3cec1;}.cls-25{fill:#f5f2f0;}.cls-26{fill:#241515;}</style></defs><path class="cls-1" d="M1876.32,378.19C1790,127.71,1531.56,245.3,1424.09,473.63c-75.07,159.49-214,331.49-237,360.33-13.73,17.22-31.39,30.52-54.74,32.36-20.5,1.62-40.95-4.39-60-11-33.68-11.7-65.56-24.23-101.37-28.88-31.49-4.1-27-2.66-58.29,2.93-63.82,11.41-103.17,73.45-136.29,127.34-64,104.13-69.91,200-113.69,314.11-10.85,28.26-53.44,64.56-81.3,78.93-18.35,9.47-40,11-59.64,17.66-69.35,23.48-102,112.74-57.65,170.61,87.1-2.33,1245.95-5.35,1344.52-1a2.33,2.33,0,0,0,.73-.11l2.14,8.32c.67,2.59,4.78,1.49,4.18-1.1C1784,1406.31,1924.52,518.1,1876.32,378.19Z" transform="translate(-311.51 -237.79)"/><path class="cls-2" d="M1366.65,783.49a2,2,0,0,0,1.5-2.37c-1.8-9.47-20.73-5.42-26.92-4.19-10,2-24.79,4.92-29.16,15.4a1.52,1.52,0,0,0,.21,1.64q-6,29.84-12,59.67c-3.11,15.4-7.43,32.55-.66,47.62,6.4,14.24,20.2,26.31,30.37,37.86,5.25,6,10.44,6.42,12.49.64a2.16,2.16,0,0,0,.52-.15c8.78-4.69,24.28.17,27-8.86,4.5-15.19,3.15-53,1.72-67.11C1368.69,834.68,1370.7,812.28,1366.65,783.49Z" transform="translate(-311.51 -237.79)"/><path class="cls-3" d="M969.29,844.23a158.77,158.77,0,0,0-6.72-24.3c-2-5.34-4.23-11.3-9.62-14-9.14-4.63-20.39-1.18-29.5,4.68a5.78,5.78,0,0,1-.13,2.42c-3.28,12.41-8.14,24.21-13.4,35.89a4.45,4.45,0,0,1-1.72,1.93c-6.41,22.78-9.73,47.56.49,68a1.63,1.63,0,0,0,2,.92c1.1,6.78,8.83,9.87,15.85,7.4,11.62-4.08,21.05-17.21,27.64-26.94a171.31,171.31,0,0,0,20.25-40.64C976.41,853.64,975.93,844,969.29,844.23Z" transform="translate(-311.51 -237.79)"/><path class="cls-4" d="M1671,1772.88a9,9,0,0,1-8.94-9.43l37.26-728a8.91,8.91,0,0,1,2.39-5.66l101.17-108.34a9,9,0,0,1,15.5,6.58c-.37,7.06-37,705.61-37.25,713.53,0,4,0,5.42-103.26,128.1A9,9,0,0,1,1671,1772.88Zm46-733.22-35.73,698.05c33.52-40,74.53-89.22,82-99.27,2-40.87,26.31-504.8,35.84-686.75Zm46.19,600.91q0,.36,0,.75S1763.19,1641,1763.21,1640.57Z" transform="translate(-311.51 -237.79)"/><path class="cls-4" d="M320.52,1804.21a9,9,0,0,1-9-9.37l29.91-757a9,9,0,0,1,2.38-5.76L445,922.48A9,9,0,0,1,460.59,929c-.3,7.35-29.7,735-29.9,742.42,0,4.08,0,5.51-103.24,129.58A9,9,0,0,1,320.52,1804.21Zm38.78-762.35L330.57,1769c33.54-40.43,74.65-90.39,82.2-100.61,1.64-42.73,22.43-557.51,28.82-715.66Zm53.39,628.76a5.15,5.15,0,0,0,0,.56S412.67,1671,412.69,1670.62Z" transform="translate(-311.51 -237.79)"/><path class="cls-5" d="M991.39,1700.2a8.72,8.72,0,0,0,9.25-6.72c29.18-126.76,74.14-319.29,78.38-330.17a8.49,8.49,0,0,0-3.85-11.52,8.9,8.9,0,0,0-11.84,4c-4.74,9.2-62.19,257.83-79.68,333.81a8.72,8.72,0,0,0,6.54,10.45A7.13,7.13,0,0,0,991.39,1700.2Z" transform="translate(-311.51 -237.79)"/><path class="cls-5" d="M1148.61,1600.48a8.73,8.73,0,0,0,8.63-7.52c16.55-118.79,42.36-299.46,45.58-310.34a8.52,8.52,0,0,0-4.84-11.16,8.89,8.89,0,0,0-11.44,5c-3.92,9.58-36.64,242.85-46.57,314.12a8.72,8.72,0,0,0,7.43,9.84A8.31,8.31,0,0,0,1148.61,1600.48Z" transform="translate(-311.51 -237.79)"/><path class="cls-5" d="M1385.06,1707.2a8.22,8.22,0,0,0,1.22,0,8.73,8.73,0,0,0,8.27-9.14c-3.86-77.88-16.7-332.74-19.75-342.62a8.72,8.72,0,0,0-16.77,4.78c2.31,12.47,12.68,209.16,19.11,338.7A8.71,8.71,0,0,0,1385.06,1707.2Z" transform="translate(-311.51 -237.79)"/><path class="cls-5" d="M1491.62,1601.27a9.87,9.87,0,0,0,1.22,0,8.73,8.73,0,0,0,8.2-9.21c-4.35-75.77-18.78-323.76-21.9-333.62a8.72,8.72,0,0,0-16.72,4.92c2.39,12.27,14,203.68,21.21,329.7A8.73,8.73,0,0,0,1491.62,1601.27Z" transform="translate(-311.51 -237.79)"/><path class="cls-6" d="M998.92,1324.26c4.5-3.29,157.05-97.75,157.05-97.75l11.63,91.23s-161,19.85-161.66,17.5S998.92,1324.26,998.92,1324.26Z" transform="translate(-311.51 -237.79)"/><path class="cls-6" d="M1084.2,1351.57c40.29-134.65,66.67-296.68,77.22-436.88,0-.26,0-.53.06-.79.67-4.9,3.79-9.07,9.52-9.86,0-.2,1.94-.2,1.94-.2a14.74,14.74,0,0,1,6.51,0H1525.9c7.24-1.68,15.44,2,14.85,11.4a1983,1983,0,0,1-59.06,371c-4.68,18.1-52.27,58.38-72.28,74.67a31.39,31.39,0,0,1-19.84,7H1100.46a12.54,12.54,0,0,1-6.29-1.62C1087.49,1365.31,1081.71,1359.88,1084.2,1351.57Z" transform="translate(-311.51 -237.79)"/><path class="cls-6" d="M991.37,1352c-1.76-13.61,3.59-30.51,14.63-30.51h428.14c14.61,0-50.88,46.44-64.06,46.44l-365,.94C997,1368.87,992.56,1361.19,991.37,1352Z" transform="translate(-311.51 -237.79)"/><path class="cls-7" d="M1032,1334.43h309.29a2.38,2.38,0,1,0,0-4.76H1032a2.38,2.38,0,1,0,0,4.76Z" transform="translate(-311.51 -237.79)"/><path class="cls-7" d="M1515.74,957.86q-21.85,131.39-48.22,261.94c-.5,2.48,3.3,3.54,3.8,1q26.36-130.55,48.22-261.94C1520,956.43,1516.16,955.36,1515.74,957.86Z" transform="translate(-311.51 -237.79)"/><path class="cls-7" d="M1450.63,1262.19q-34.12,29.76-69.19,58.43c-2,1.6.84,4.38,2.79,2.78q35.05-28.65,69.19-58.43C1455.33,1263.3,1452.53,1260.53,1450.63,1262.19Z" transform="translate(-311.51 -237.79)"/><path class="cls-8" d="M1343.19,1266.55c57.13,7.22,14-142.12,14.51-154.13s-24.11,1-35-3.34c-15.46-6.16-31.59-11.09-47.48-16-34.57-10.73-70.59-18.87-107-16.45a162.85,162.85,0,0,0-49.26,10.67c-16.54,6.55-31.5,18.65-49.72,19.77,0-2.67-4-2.68-3.94-.14.35,17.06.76,34.23-1.07,51.22-2,18.34-7.7,35-13.62,52.33a233,233,0,0,0-10.24,44.7c-1,7.81-1.87,15.64-2.61,23.48-.51,5.44-1.62,11.63,2.33,16.12,5.6,6.38,16,3.89,23.24,2.8a511.6,511.6,0,0,1,56-5.23c35.41-1.43,70.87.21,106.23,2.21,16.31.92,32.94,2.84,49.26,1.32,14.38-1.34,27.54-6.67,40.58-12.6,11.65-5.29,21.52-11.89,26.73-24,6.07-14.09,9.24-29.93,13.52-44.64C1360,1199.66,1327.33,1264.54,1343.19,1266.55Z" transform="translate(-311.51 -237.79)"/><path class="cls-8" d="M1150.67,1127.59c-60.87,2.06-211.83-12.73-265.85-18.28-13.93-1.43-16.78,2.25-30.24,5.81-13.67,3.62,33.38,23,34.64,35.57,3,29.68,5.79,59.39,9.61,89,3.52,27.15,6,54.19,8,81.49.16,2.16.35,4.43,1.58,6.22,3.69,5.38,9.93-28,14.79-28.54,41-4.37,146,3.39,187.25,5.15,16.41.71,8.4-34.33,21.66-46.42,10.51-9.59-17.66,35-15.2,21.55,5.15-28.06,4.44-56,13.77-83.39,3.26-9.56,10-19.64,9.59-30C1139.78,1152.12,1161.62,1127.22,1150.67,1127.59Z" transform="translate(-311.51 -237.79)"/><path class="cls-9" d="M1395.24,851.39c.76-.38-7.34-33.31-11.66-57.69-4.21-23.72-7.16-65.73-13.11-89.08-4-15.76-11.66-30.16-27.07-37.15-15.13-6.86-45-6-72.68-5.28-15.35-3.44,10.88,24.09,11.6,32.61a554,554,0,0,0,11.55,75.11c5.68,25.26,16,49.84,19.63,75.46.77,5.5-.09,19.9,5.54,23.42a4.38,4.38,0,0,0,6.86-2.75c13.3-.42,27-.49,39.3,5.32,3.69,1.75,2.19,25.95,6.71,23.37C1372.6,894.33,1397.64,840.49,1395.24,851.39Z" transform="translate(-311.51 -237.79)"/><path class="cls-9" d="M1393.79,831.69a67,67,0,0,0-11.07-5.57c-4.43-8.93-16.44-7.07-24.31-8.12-12.46-1.66-22.52,2.56-32.62,11.07-6.82,5.75-10,13.08-6.86,22.59,2,5.92,5.75,11.77,9.2,16.65,4.16,5.87,10.52,8.61,14.47,14.23a1.31,1.31,0,0,0,2.21.12c8.18,6.42,3.61,3.3,13.64,6.2,14.4,4.17,22.38,18.17,27.43,6.06,6.65-16,10.9-37.2,11.76-54.43C1397.87,835.9,1397.25,834,1393.79,831.69Z" transform="translate(-311.51 -237.79)"/><path class="cls-10" d="M976.65,830.46a40.84,40.84,0,0,0-9.55-9.9c-4.31-3.17-15.08-5.93-20.25-10.74.51-1.2,0-2.85-1.69-2.74l-.43,0a6.45,6.45,0,0,1-.74-3.31c.14-2.54-3.8-2.53-3.94,0a13.09,13.09,0,0,0,.33,3.63c-11.26.92-26.17,3-33.82,10.32-4.07,3.88-4.51,9.84-5.72,15l-6.08,26.14c-.93,4-9.43,25.2,1.43,25.24,3.4,0,4.83-3.64,7-5.65,6.49-6.06,17.78-8.38,26.36-8.65a54.87,54.87,0,0,1,25.36,5.3c4.38,2.1,10.09,8.4,14.78,9,8.48,1.11,12.29-15,13.4-20.9A43.76,43.76,0,0,0,976.65,830.46Z" transform="translate(-311.51 -237.79)"/><path class="cls-10" d="M1216.11,661.43c.91-.64-17.83,11.35-16.75,11.1,3.94-.89,10.46-2,18-3.14C1216,665.39,1215.22,662.06,1216.11,661.43Z" transform="translate(-311.51 -237.79)"/><path class="cls-9" d="M1042.72,1004c11.24,47.18,6.16,83,4.85,119.78,16.84.82,46,4.26,60.68,6.71,37,6.14,74.08,11.08,111.22,16.26,27.23,3.8,54.46,7.64,81.74,11.1,13.64,1.73,47.62,1.67,61,4.81,5,1.16,9.24,1,9.39-12.63.69-61.59-5.09-121.26-9.5-182.72-1.36-19.06,0-39.9-3.11-58.66-7.63-45.76-23.29-91.8-21.88-137.29a219.78,219.78,0,0,0-5.59-58.24c-4.83-20.12-5.33-52-33.17-51.64-11.12.13-22.32-.11-33.37,1.37-8.82,1.18-30.76,4-47.67,6.59,2.07,6.31,5.4,14.29,5.39,16-.16,36.12-25.58,91.92-70.3,81.69-22.4-5.12-39.25-22.38-51.06-41.25a177.88,177.88,0,0,1-15.07-30.73c-1.79-4.67-6.14-28.47-10.85-29.5a6.18,6.18,0,0,0-2.42.11c-15.81,2.87-41.63-4.14-54.91,5.83-12.32,8.16-15.91,35.79-18,49.8-3.4,23-6,46.54-3.27,69.75,2.55,22.12,11.44,44.07,19.33,64.87q1.71,4.5,3.4,9c-.15.61-.2,1.22-.33,1.82C1034.35,915.59,1030.73,953.66,1042.72,1004Z" transform="translate(-311.51 -237.79)"/><path class="cls-11" d="M1310.68,738c-2.7-14.91-2.72-28.47-1.75-43.44.7-10.75.28-20.73-5-30.33-1.34-2.45-5.09-.26-3.75,2.19,6.64,12.13,4.41,25.38,3.57,38.54-.73,11.6.65,22.81,2.71,34.19,5,27.81,8.25,55.45,8.25,83.74,0,2.79,4.34,17.27,4.34,0C1319.08,794.17,1315.78,766.15,1310.68,738Z" transform="translate(-311.51 -237.79)"/><path class="cls-11" d="M1150.09,812l-2.76,335.1c0,2.79,4.31,2.79,4.33,0q1.38-167.55,2.77-335.1C1154.45,809.21,1150.11,809.2,1150.09,812Z" transform="translate(-311.51 -237.79)"/><path class="cls-12" d="M1295.27,650.26c-5.11-3.51-13-2-19.21-3.56-6.77-1.73-11-5-13.29-9.32-2.54-.93-4.59-3.44-5.83-8.87-2.21-9.71-1.12-19.84-2.76-29.65a130.23,130.23,0,0,0-6-23.51c-9.5-25.79-30.58-41.82-57-47.86-14-3.2-28.53-3.71-42.91-3.35-31.3.8-58.47,9.25-78.55,34.29-18.86,23.51-28.11,53.76-30.7,83.45-.56,6.38-.8,12.79-.77,19.2.13,23.61,14.88,11.85,18,35.13.33,2.48,4.27,2.51,3.94,0-.09-.66-.17-1.33-.26-2a1.69,1.69,0,0,0,.24,0c7.46.07,10.57-6.32,13.88-12.08,6.62-11.49,13.67-22.71,21.31-33.55,7.32-10.39,15.63-20,23.21-30.16a61.33,61.33,0,0,0,6.55-10.8c4-8.54,7.18-13.61,14.79-19.26a2.14,2.14,0,0,0,.2-3.23l1.45-1c4.18,7.77,17.17,8.55,24.1,12,14.2,7,22.45,17.11,29.35,31.07a521.69,521.69,0,0,0,45.36,74.4c3.56,4.91,9.92,9.46,16.18,6.55,3-1.39,5.31-3.92,7.53-6.39l3.63-4.06c7.27-8.2,14.48-16.44,22.69-23.6,6.11-5.33,10.13-8.5,12.06-13.83C1300.8,656.1,1298.51,652.49,1295.27,650.26Z" transform="translate(-311.51 -237.79)"/><path class="cls-11" d="M1089,951.42c-.77-63.09-3.75-126.22-5.75-189.28-.09-2.79-4.43-2.8-4.34,0,2,63.06,5,126.19,5.75,189.28.39,32.18-1.28,64-6.67,95.77-4.39,25.86-9.7,52.3-10.88,78.5,1.45-.06,2.86-.06,4.31,0,1.28-27.93,7.35-55.92,11.78-83.51C1088.06,1012.11,1089.39,981.84,1089,951.42Z" transform="translate(-311.51 -237.79)"/><path class="cls-2" d="M1231.46,625.06c-7.36-43.8-32.08-73.56-80.65-71.61-39.75,1.59-67,27.5-77.54,63.92-13.87,48.06-2.15,107.86,22.85,150.2a199.77,199.77,0,0,0,20.16,28.26c7.62,8.92,15.33,18.15,28.07,17.1,21.75-1.78,38.45-18.87,51.42-34.66C1225.85,741.66,1239.37,672.17,1231.46,625.06Z" transform="translate(-311.51 -237.79)"/><path class="cls-8" d="M1365.77,1173.88c-1.86-5.54-115.84-82.8-171-82.8-2.66,0-19.41,62.72-15.5,95.09,5.47,45.19,23.83,139.4,24.78,139.42,27,6.24,56.49,7.86,82.17,7.29,9.91-.22,25.28-2.13,35.17-5.65,11.06-3.94,18.93-13.47,26.07-22.35C1377,1268.1,1381.39,1220.37,1365.77,1173.88Z" transform="translate(-311.51 -237.79)"/><path class="cls-9" d="M1034.44,703.08c-.63-6-3.56-11.4-5.31-17.2-1.66-5.51,35.22-14.29,38.23-19.54-21.54-10.08-51.66-9.32-73.19.25-25.55,11.35-38.46,46.72-47.79,71.06C935.15,767,924.08,796,906.67,822.27c-8,13.22-9.41,42.61,0,48.21,9.87,5.88,20.18,23.4,32.14,24.44,6,.52,71.74,19.71,77.19,17.17,36.91-17.17,18.67-44,22.3-52.66,6.65-16-6.71-41.08-1.34-57.53C1048.56,766.4,1038.59,742.11,1034.44,703.08Z" transform="translate(-311.51 -237.79)"/><path class="cls-11" d="M1349.69,742.3c-2.71-25.74-2.7-54.38-16.62-77.11-1.46-2.38-5.21-.2-3.74,2.19,14.8,24.18,14,56,16.91,83.35q4.65,44.24,9.31,88.46c.29,2.75,4.63,2.78,4.34,0Z" transform="translate(-311.51 -237.79)"/><path class="cls-11" d="M1000.05,664.71c-8.88,6.93-14.08,19.65-16.84,30.29-4.14,15.94-7.46,32.08-11.66,48q-13.37,50.57-31.38,99.71c-1,2.63,3.23,3.76,4.19,1.15q16.49-45.2,29.2-91.63,6-22.2,11.16-44.63c3.1-13.56,10.61-35.5,22.2-44.56C1009.11,661.34,1002.22,663,1000.05,664.71Z" transform="translate(-311.51 -237.79)"/><path class="cls-11" d="M1049.63,738.44l-18.42,78.75q-4.35,18.66-8.72,37.3-2.41,10.37-4.84,20.73c-.93,3.94-2,18.61-6.57,19.61-2.73.59-1.58,4.77,1.15,4.18,8.2-1.78,8.09-16.19,9.6-22.64q5.33-22.8,10.66-45.59,10.66-45.6,21.32-91.19C1054.45,736.88,1050.27,735.72,1049.63,738.44Z" transform="translate(-311.51 -237.79)"/><path class="cls-11" d="M1222.4,750.18c-.19-2.78-4.53-2.8-4.34,0q13.2,202.19,24.51,404.48c.16,2.78,4.5,2.8,4.34,0Q1235.6,952.37,1222.4,750.18Z" transform="translate(-311.51 -237.79)"/><path class="cls-11" d="M1315.32,1139.12a27.9,27.9,0,0,1,4.86,2.93c3.87-52.12,2.14-105.62-4.16-157.53-.33-2.74-4.67-2.77-4.34,0A814.22,814.22,0,0,1,1315.32,1139.12Z" transform="translate(-311.51 -237.79)"/><path class="cls-13" d="M957.57,811.13a61.83,61.83,0,0,0-42.08,3.24c-2.31,1-.31,4.43,2,3.4a56.69,56.69,0,0,1,39-2.84C959,815.61,960,811.79,957.57,811.13Z" transform="translate(-311.51 -237.79)"/><path class="cls-13" d="M1299.77,707.18a186.66,186.66,0,0,0-19.89,55.52c-.46,2.47,3.33,3.54,3.8,1a183,183,0,0,1,19.5-54.57C1304.4,706.94,1301,705,1299.77,707.18Z" transform="translate(-311.51 -237.79)"/><path class="cls-12" d="M1235,740.52c2.55-11.78,13.92-13.69,13.09-25.59-.64-9.1,3.73-20.6,0-28.76-.22-3.16.71-4.78,0-7.88-.57-2.46-5.21-7.52-2-7.88,21.7-2.46,2.28-33.62,2-33.16-12.27-12.79-6.71-43.23-14.45-59.23-6.6-13.64-44.4-26.09-59.25-31.52-11.68-4.27-41.42-.29-53.38,4.06-3.85,1.39-5.69,43.94-5.17,47.82a1.72,1.72,0,0,0-1.57,1.39c-6.11,24.82-11.16,55.1,12.67,72.39,10.85,7.88,24.64,12.12,37.82,13.71,13.67,1.65,32.88-4.15,45.32,3.33.25.75.56,1.47.77,2.25a62.18,62.18,0,0,1-.42,34.11c-3.38,11.24-10.85,20-16.14,30.26-3.74,7.27-5.91,16-2.78,23.59,1.22,2.93,7.21,8.47,6.79,11.48a5.09,5.09,0,0,1-1,2.08q-6.22,9-12.58,18c-6.66,9.34-13.24,19.5-14.5,31.19-1,9.7,1.86,19.32,9.52,25.65,5.43,4.49,32.27,15.86,26.2,0-4.76-12.4-.7-28,7-38.42,6.88-9.29,17.86-13.33,22.31-23.68a1.83,1.83,0,0,0,1.6-.89c5.19-8.2-1.11-16.46-3.39-24.45C1229.75,767.23,1232.23,753.56,1235,740.52Z" transform="translate(-311.51 -237.79)"/><path class="cls-12" d="M1131,601.28c.19-8.16-4.41-48.21-12.39-50.9-9.6-3.24-50.07,12.64-57.14,19-18,16.27-42.08,67.12-45.45,90.89-6.55,15.3,17.55,32.59,14.13,48.71-2.58,12.17,2,21.84,13.59,31.15,18.43,14.84,20.09,29.67,3.74,51.31-7.63,10.09-8.61,25.4.11,35.79,3.57,4.24,8.37,15.81,15,15.32,5.82-.44-.16-7.35-.89-10.9-1.78-8.63,2.1-18.74,7.69-25.36,6.61-7.82,18.11-7.13,24.59-15,2.88-3.48,4-8.15,3.92-12.67-.3-15.21-10.69-28.27-15.66-42.13-2.47-6.88-3.79-14.42-2-21.51,4.21-16.61,22.94-25.39,26.25-42.63,2.09-10.82-2.84-21.73-1.21-32.72a49.3,49.3,0,0,1,16.92-30.31c.44,1.31,2,2.19,3.13.85l5.42-6.67A2,2,0,0,0,1131,601.28Z" transform="translate(-311.51 -237.79)"/><path class="cls-14" d="M1163.78,630.55c-9.3-12.89-15.74-28-26.81-39.57-5.35-5.61-16.25-16-24-9.17-1.91,1.69.89,4.47,2.78,2.79,8-7.12,24.29,16,27.78,21.28,5.78,8.8,10.67,18.11,16.84,26.65C1161.85,634.57,1165.27,632.61,1163.78,630.55Z" transform="translate(-311.51 -237.79)"/><path class="cls-14" d="M1207.71,669.06c-26.82-7.72-55.43-17.82-68.14-44.86-1.08-2.3-4.48-.3-3.41,2,13.13,27.93,42.76,38.69,70.5,46.68C1209.1,673.56,1210.14,669.76,1207.71,669.06Z" transform="translate(-311.51 -237.79)"/><path class="cls-14" d="M1102.45,605.08A131,131,0,0,0,1074,677.47c-.19,2.53,3.75,2.52,3.94,0a126.43,126.43,0,0,1,27.31-69.61C1106.8,605.9,1104,603.09,1102.45,605.08Z" transform="translate(-311.51 -237.79)"/><path class="cls-14" d="M1075,754.57c-1.92-5.37-5.18-10.07-7.45-15.27-4.4-10-4.11-20.33,0-30.42,1-2.35-2.86-3.37-3.8-1-4,9.85-4.7,20.41-.89,30.47,5.59,14.72,16.47,27.06,3.53,42.09-1.65,1.91,1.12,4.71,2.78,2.79C1076.24,775,1078.71,764.93,1075,754.57Z" transform="translate(-311.51 -237.79)"/><path class="cls-14" d="M1204.4,583.84c-13.46-13.06-26.41-30.38-46.23-33.42-13.74-2.1-27.9,5.23-31.19,19.23-.58,2.46,3.22,3.52,3.8,1,4.33-18.44,25.42-19.41,39.41-12,12.45,6.64,21.45,18.21,31.42,27.88C1203.43,588.39,1206.22,585.61,1204.4,583.84Z" transform="translate(-311.51 -237.79)"/><path class="cls-13" d="M1245.76,1075.25a1635.38,1635.38,0,0,1-135.24-97.74c-2-1.57-4.77,1.2-2.79,2.79a1647.05,1647.05,0,0,0,136,98.35C1245.9,1080,1247.88,1076.62,1245.76,1075.25Z" transform="translate(-311.51 -237.79)"/><path class="cls-15" d="M1286.17,1041.47a1025.53,1025.53,0,0,1-122-43.42c-2.31-1-4.32,2.4-2,3.4a1034,1034,0,0,0,122.94,43.82C1287.56,1046,1288.61,1042.17,1286.17,1041.47Z" transform="translate(-311.51 -237.79)"/><path class="cls-14" d="M1199.26,564.27c-1.58-2-4.35.82-2.79,2.79a65.06,65.06,0,0,1,14.12,36.52c.17,2.52,4.11,2.54,3.94,0A69.8,69.8,0,0,0,1199.26,564.27Z" transform="translate(-311.51 -237.79)"/><path class="cls-14" d="M1224.39,731.19c1.1-2.28-2.3-4.28-3.41-2-4.58,9.46-11.63,19.86-13.45,30.37s4,19.39,10,27.55c1.49,2,4.91.06,3.41-2-6.93-9.42-12.21-18.29-7.83-30.21C1216.13,746.77,1220.6,739,1224.39,731.19Z" transform="translate(-311.51 -237.79)"/><path class="cls-16" d="M1829.79,922.09s-9.34.91-9.85,2.18c-.2.5.13,1.85.59,3.32H423a8.83,8.83,0,0,0-6.91,3.35l-84,106.41c-1.4-2.39-2.67-4.58-2.76-4.79-.2-.48-2.21.55-2.21.55v13.22a6.91,6.91,0,0,0,6.87,6.56H1728.63a20.08,20.08,0,0,0,15.77-7.64L1828.26,939a6.87,6.87,0,0,0,1.46-4.73C1829.78,934.32,1829.79,922.09,1829.79,922.09Z" transform="translate(-311.51 -237.79)"/><path class="cls-17" d="M1728.63,1040.24H334a6.87,6.87,0,0,1-5.39-11.13l87.5-110.82a8.76,8.76,0,0,1,6.9-3.35h1399.7a7.07,7.07,0,0,1,5.55,11.45L1744.4,1032.6A20.08,20.08,0,0,1,1728.63,1040.24Z" transform="translate(-311.51 -237.79)"/><path class="cls-14" d="M1117.62,542.1c-2.33-1-3.35,2.83-1,3.8a13.68,13.68,0,0,1,7.59,8.55c-1.56-2.16-5-3.24-7.24-4.11a35,35,0,0,0-13.6-2.08c-2.53.09-2.54,4,0,3.94a31.58,31.58,0,0,1,9.38.94c1.36.36,6.56,1.66,8,3.19a2,2,0,0,0,3.33,1.73l.34-.32a1.9,1.9,0,0,0,.51-1.14c.75,2,4.12,1,3.67-1.36A18,18,0,0,0,1117.62,542.1Z" transform="translate(-311.51 -237.79)"/><path class="cls-2" d="M1133,585.24c-.72-1.34-3-1.5-7.33.54a97.25,97.25,0,0,1-21.3,7,109.73,109.73,0,0,0,10.84-9.49c5.17-5.27,15.59-14.85,10-22.9a12.73,12.73,0,0,0-1.15-1.38c-6.16-6.42-19.92-.78-27.36,0-7.68.79-16.27.7-23.63,3.27-8.13,2.83-15.52,7.12-23.92,9.45-7.53,2.1-16.68.23-23.52,4.58-8.74,5.55-7.37,17.37-6.38,26.27,1.28,11.56,3,22.5,3.21,34.2.27,17.42.91,31.16-7.28,47-14.89,28.88-30.34,57.67-47.51,85.27q-14.11,23.15-29.29,45.63c-10.16,15.05-21.69,29.38-31.22,44.82-8.3,13.46-10.63,26.68-6.44,42,2.32,8.49,5.61,16.78,8.5,25.09,2.13,6.11,3.61,14.3,8,19.34,4.61,5.25,10.81,8.5,17.85,6.4,6.1-1.82,11.45-6.45,16.88-9.66,15.35-9,24.24-25.6,29.82-42,7.3-21.44,16.48-42.47,25.13-63.48,7.37-23.94,19.48-47.82,30.09-70.44,10.16-21.66,32.34-91,35.78-103.94,1.77-6.68,3.06-13.49,4.38-20.28,1.1-5.69,1.06-16.15,4.19-21a47.42,47.42,0,0,1,5.42-7.12c7-7.32,17.28-5.36,26.1-8.73a41.65,41.65,0,0,0,16.11-11.1C1132.17,591.06,1134,587.06,1133,585.24Z" transform="translate(-311.51 -237.79)"/><path class="cls-2" d="M1366.61,898.5c-4.93-9.61-12.69-18.18-19.52-26.35-15-17.92-27.47-37.92-38.87-58.24-10.8-19.26-21.34-38.7-30.68-58.72-7.83-16.79-20.62-38.76-20.16-57.7.18-7.6,1.76-15.17,2.36-22.75.89-11,2.29-22.92,2-34.38a88,88,0,0,0-1.21-12.78,33.46,33.46,0,0,0-1.32-5c-4.32-4.79-8.22-10.11-12-14.63-6.11-7.28-12.36-14.32-18.33-21.71-2.75-3.4-5.18-5-9.55-4.88a2.14,2.14,0,0,0-2.12,2.13,36,36,0,0,0,3.67,13.58l-.88-.93q-6.7-6.78-13.46-13.5c-2.75-2.75-7.11-9.21-11.31-9.86a4.52,4.52,0,0,0-3.29.83c-3.38,1.11-6.71,5.54-7.47,9-1.78,8.18-2.6,17-1,25.25-2.23-3.06-4.86-5.49-8.84-5.62a2.15,2.15,0,0,0-2,1.56c-2.27,8.87,4.79,20.58,8.21,28.48,1.6,3.69,3.3,7.28,5.15,10.76,2.41,7.56,6.48,14,8.44,22.15,2,8.44-.25,18.48-1.73,28.26,0,.46,0,.92,0,1.38,0,12.1,9.07,16.22,15.93,24.37,19.53,23.21,20.11,55.5,28.06,83.42,8.9,31.28,18.89,62.25,30.2,92.74,3.4,9.18,6.27,19.33,13,26.76,9.74,10.81,21.51,19.5,33.71,27.33,8.11,5.21,15.74,13.3,25.26,16.42,8,2.62,14-1.19,18-8.27,6.28-11,13.09-22.93,14.6-35.74C1372.38,913.35,1370.27,905.64,1366.61,898.5Z" transform="translate(-311.51 -237.79)"/><path class="cls-2" d="M1148,1525.38c-20.92-5.07-42-13.38-63.63-10.39a1590.13,1590.13,0,0,1-49.72,170.32c18.92,5.78,38.53,8.56,58,12.27,4.4.83,6,1.73,10.39,2.85,20.17-56.71,45.67-121.88,62.36-179.7C1161.06,1519.64,1152.39,1526.45,1148,1525.38Z" transform="translate(-311.51 -237.79)"/><path class="cls-18" d="M1412.17,832.73l-113,113.54c-1,4.49-7.35,56.77-7.35,56.77h197l92.64-113.54,7.35-56.77Z" transform="translate(-311.51 -237.79)"/><path class="cls-2" d="M912.25,1674.94a2.1,2.1,0,0,0,1,.28c0,.11,0,.21-.09.32a1.19,1.19,0,0,0-.08.4c17,2.36,37.86-8.08,52.37-13.51q8.71-3.26,17.22-6.88c.1-.93-6.69,12.26-5.9,7.5L958.6,1510.58c.12,2.44,5-3.89,2.88-2.95-12.68,5.46-27.25,5.59-40.5,9.56-13.51,4-26.77,9-40.1,13.52-1.51.52-1.44,2.06-.61,3a1060.94,1060.94,0,0,1,31,139.48A6.19,6.19,0,0,1,912.25,1674.94Z" transform="translate(-311.51 -237.79)"/><path class="cls-8" d="M1257,1116.47c-24.46-24.34-70-37.35-96.68-10.37-22.07,22.34-31.73,55.67-40.89,84.85-19.35,61.72-34.59,124.67-47.54,188-6.92,33.91-13.33,67.93-19.74,102-3,16.15-8.48,33.46-9.44,49.88-.8,13.82,16.73,9.81,26.9,10.75,19.7,1.82,38.81,5.7,58.65,5.52l68.15-.64c10.16-.1,13.87-43.38,17.4-53.18,4.81-13.36,10-26.76,11.6-41,1.91-17.18-3.89-33.27-4.78-50.27-1.75-33.25,15.65-65.31,26.51-95.83,7-19.81,13.15-39.93,19-60.12,4.92-17,14.92-38.09,15.72-55.76C1283.24,1159.86,1274.87,1134.23,1257,1116.47Z" transform="translate(-311.51 -237.79)"/><path class="cls-8" d="M807.15,1337.48,825.9,1456c3.53,22.32,25.84,112.24,25.84,112.24,39.66-8.11,118.77-23,140.13-31.13,15.07-3.64,13.72-4.75,6.53-29.71-9.63-33.43-4.23-55.36-22.16-85.72-7.72-13.07-16.34-25-18.18-40.53s1.73-30.8,4-46a198.18,198.18,0,0,0,2.31-37.14,193.5,193.5,0,0,0-13.32-63.31c.12-.25,3.52,8.59,3.53,8.25.76-41.65-3.35-125.2-46.12-131.29-41.29-5.88-76.59-2-94.41,25.55-17.51,27-19.31,46-18.08,77.64C797.44,1252.25,801.32,1300.62,807.15,1337.48Z" transform="translate(-311.51 -237.79)"/><path class="cls-19" d="M1135.39,1145.55a752.1,752.1,0,0,0-44.1,151.75c-.45,2.48,3.35,3.54,3.8,1a751.72,751.72,0,0,1,44.1-151.75C1140.14,1144.25,1136.33,1143.23,1135.39,1145.55Z" transform="translate(-311.51 -237.79)"/><path class="cls-19" d="M991.92,1235.91q-24.67,47.76-47.39,96.49c-1.11,2.4,2.44,4.49,3.57,2.09,16.58-35.59,31.95-66.64,47.38-96.5C996.7,1235.63,993.14,1233.54,991.92,1235.91Z" transform="translate(-311.51 -237.79)"/><path class="cls-19" d="M959.69,1224.57v56.75c-7.84,2-3.72,2-3.72-.66v-56.74C956,1221.27,951.85,1221.26,959.69,1224.57Z" transform="translate(-311.51 -237.79)"/><path class="cls-19" d="M1282.4,1238.06a816.53,816.53,0,0,1-78.28,131.8c-1.56,2.15,2.06,4.13,3.61,2a798.69,798.69,0,0,0,78.28-131.8C1287.14,1237.68,1283.54,1235.66,1282.4,1238.06Z" transform="translate(-311.51 -237.79)"/><path class="cls-19" d="M1263.68,1215.72q-7.79,36.49-18.47,72.25c-.76,2.55,3.22,3.64,4,1.09,7.9-26.43,13.23-47.67,18.47-72.24C1268.21,1214.23,1264.24,1213.12,1263.68,1215.72Z" transform="translate(-311.51 -237.79)"/><path class="cls-13" d="M1387.19,827.88a97.58,97.58,0,0,0-57.44-1.53c-2.45.67-1.41,4.47,1,3.8a93.55,93.55,0,0,1,55.35,1.53C1388.55,832.49,1389.58,828.68,1387.19,827.88Z" transform="translate(-311.51 -237.79)"/><path class="cls-13" d="M1325.2,735.37l-31.43,13.37c-2.32,1-.32,4.39,2,3.4l31.43-13.37C1329.51,737.79,1327.51,734.39,1325.2,735.37Z" transform="translate(-311.51 -237.79)"/><polygon class="cls-18" points="1181.03 686.57 984 686.57 1096.99 573.03 1273.68 573.03 1181.03 686.57"/><path class="cls-13" d="M1047.46,791.49c.83-2.4-3-3.44-3.8-1q-3,8.71-6,17.43c-1.42,4.08-2.77,12-5.37,16.12a2,2,0,0,0-1.21,3.71c.17.1.3.24.46.35a3.4,3.4,0,0,0,.3.23c8,6.14,7.5,21.76,7.35,30.65a101.85,101.85,0,0,1-5.24,29.82c-.79,2.42,3,3.46,3.8,1a103.6,103.6,0,0,0,5-41.17c-.69-7.86-1.47-16.84-7.29-22.4,2.32-3.81,3.21-9.33,4.58-13.29Z" transform="translate(-311.51 -237.79)"/><path class="cls-20" d="M987,1660.34c-5.06-11.26.46-15.69-7.3-26.16-1.24-1.67-3.46-3.33-5.21-2.19a4.45,4.45,0,0,0-1.51,2.54,112,112,0,0,0-3.3,13c-.32,1.67-.91,3.68-2.56,4a3.59,3.59,0,0,1-2.06-.31c-7.23-2.86-3.92-9.48-8.67-13.89-5.19-4.81-19.72-3.79-26.1-3.55-6.1.22-16.88,0-21.65,4.52s-3.43,14.6-2.91,21.56c-7.49,24.65-15.23,47.91-28.45,71-4.16,7.3-13.85,23-11.8,31.63,1.43,6.08-1.56,11.25,2.88,14.5,13.31,9.74,42.66,7.35,52.59,1.73,52.09-29.47,38.15-18.51,38.73-13.47-3-26.17,6.71-34.44,22.38-49.91,6.19-6.12,15.82,12,17.39,3.93,8.81,16.34,7.6-10.48,7.48-11.91C1006.25,1699,990.44,1668,987,1660.34Z" transform="translate(-311.51 -237.79)"/><path class="cls-20" d="M1134,1723.74c-1.78-24.92-9.08-66.13-12.21-65.68-5.4.79-6.52,5.3-9.29,9-4.36,5.81-15.68,10.46-21.78,4.19-5.75-5.9.15-14.27-7.82-19.45-9.14-5.93-25-11.32-36.37-8.66-20.51,39-56.54,61.37-93.28,82.66-5.63,3.26-50.32,43.08-27.26,49,16.49,4.21,33.33,8.34,50.47,6.49A67.09,67.09,0,0,0,985,1781c21.48-2.26,41.8-11,62.59-16.41q19.2-5,38.69-8.69c11.68-2.21,24.37-2.67,35.66-6.34,5.11-1.68,9.38-4.16,11.46-8C1134.55,1739.29,1134.61,1732.53,1134,1723.74Z" transform="translate(-311.51 -237.79)"/><path class="cls-20" d="M1178,718.14c0-3.9-.85-7.71-3.41-9.58-4.94-3.6-7.1,2.48-8,6.58-.79,3.48-.29,12.69,2.81,15.16s5.81.78,7.07-2.74A30.25,30.25,0,0,0,1178,718.14Z" transform="translate(-311.51 -237.79)"/><path class="cls-21" d="M1578.05,835.2q-45.35,58.32-95.87,112.28c-1.9,2,1.16,5.11,3.07,3.06q50.49-53.91,95.87-112.27C1582.81,836.09,1579.77,833,1578.05,835.2Z" transform="translate(-311.51 -237.79)"/><path class="cls-21" d="M1560.7,880.06a811.13,811.13,0,0,1-74.54,81.17c-2,1.93,1,5,3.06,3.07A811.26,811.26,0,0,0,1561,886.44a2.3,2.3,0,0,0,.91-.73l2.17-3C1565.53,880.71,1562.24,878.13,1560.7,880.06Z" transform="translate(-311.51 -237.79)"/><path class="cls-21" d="M1529.81,934.36q-16.32,18.38-33.94,35.5c-2,1.95,1.06,5,3.06,3.07q17.64-17.13,34-35.5C1534.73,935.35,1531.67,932.27,1529.81,934.36Z" transform="translate(-311.51 -237.79)"/><path class="cls-20" d="M1112.73,722.65c.47-3.95-.39-8.39-2.46-11.06-3.33-4.29-9.39-3.2-10.3,2.66-.61,4,4.66,22.24,10.68,14.2A12.13,12.13,0,0,0,1112.73,722.65Z" transform="translate(-311.51 -237.79)"/><path class="cls-22" d="M1139.44,750.06c-2.9,6.51-4.34-2.15-4.61-4.61s-.27-5.08-.32-7.61c-.12-6-.18-12-.27-18,0-2.54-4-2.54-3.94,0,.11,6.83.08,13.67.32,20.5.16,4.79.15,11.09,2.75,15.29,3.33,5.37,7.51.79,9.47-3.62C1143.86,749.75,1140.47,747.75,1139.44,750.06Z" transform="translate(-311.51 -237.79)"/><path class="cls-12" d="M1189.15,704.44a6.08,6.08,0,0,0-.47-2.09c-2-4.94-13.61-6.53-18-7.82s-10.82-5.25-15.28-3.68c-6.88,2.46,7.53,11.54,10.51,12.17,6.73,1.42,13.47,2.41,20.18,4C1188.39,707.58,1189.22,706.17,1189.15,704.44Z" transform="translate(-311.51 -237.79)"/><path class="cls-12" d="M1126.33,691.85c-.44-3.39-7-3-9.37-1.94-8.6,3.88-16.75,8.78-25.47,12.56-1.21.52-1.07,1.6-.65,2.54,1.22,2.69,7.73,3,18.47-1.07,4.73-1.78,8-2.75,12.48-5.12a13.31,13.31,0,0,0,4.29-5.17A3.79,3.79,0,0,0,1126.33,691.85Z" transform="translate(-311.51 -237.79)"/><path class="cls-22" d="M1157.07,777.13a1.25,1.25,0,0,0-.57-1c-2.9-2.32-6.68-3.15-9.84-5s-5.85-.08-8.23,2.14c-1.19-1-2.3-2.11-3.79-2.34-2.33-.36-5.74,1.94-7.84,2.8a4.11,4.11,0,0,0-1.93,1.29c-2.46,3.68,13.17,7.2,14.72,7.15C1141.75,782.1,1157.06,778.26,1157.07,777.13Z" transform="translate(-311.51 -237.79)"/><path class="cls-22" d="M1210.44,721c-4.51-4.21-10.68-8.44-13.79-13.8-3.49-6-1.11-14.64-.47-21.34.24-2.53-3.7-2.51-3.94,0-.65,6.78-3.11,15.85.06,22.34,3,6.13,10.46,11,15.35,15.58C1209.5,725.52,1212.3,722.74,1210.44,721Z" transform="translate(-311.51 -237.79)"/><path class="cls-22" d="M1210.65,662.16c-2.65-9.36-1.48-19.11-3.9-28.3-2.14-8.11-10.12-13.25-14.61-20.06-1.38-2.11-4.8-.14-3.4,2,5.23,7.94,14,13.87,14.82,23.86.67,8.16,1,15.6,3.3,23.56C1207.54,665.64,1211.35,664.61,1210.65,662.16Z" transform="translate(-311.51 -237.79)"/><path class="cls-22" d="M1221.84,622.62c-3-6.16-7.71-11.5-11-17.51s-6.17-12.32-9-18.59c-1-2.31-4.44-.31-3.4,2,5.33,11.75,11.8,22.07,18.35,33.09,7,11.79,7.87,28.41,10.53,41.69.49,2.49,4.29,1.43,3.8-1C1228.5,649.48,1227.63,634.39,1221.84,622.62Z" transform="translate(-311.51 -237.79)"/><path class="cls-22" d="M1244.68,623.52c-5.64-7.74-9.15-17.94-16.94-23.82-2-1.53-4,1.89-2,3.4,6.52,4.92,8.16,12.94,12.83,19.22,6.4,8.63,5.49,16.34,3.54,26.5-.47,2.47,3.33,3.53,3.8,1C1247.55,641.38,1250.11,631,1244.68,623.52Z" transform="translate(-311.51 -237.79)"/><path class="cls-22" d="M1089.44,596.81a1.87,1.87,0,0,0-1.89-2.1,1.78,1.78,0,0,0-1.8,1.4c-3.38,3.09-7.84,3.68-10.2,8.1-2.64,4.93-4.55,10-7.66,14.71-1.41,2.13,2,4.1,3.4,2a80.35,80.35,0,0,0,6.66-12.44c1.33-3.07,2.76-4.92,5.77-6.45a18.61,18.61,0,0,0,5.22-3.48A1.77,1.77,0,0,0,1089.44,596.81Z" transform="translate(-311.51 -237.79)"/><path class="cls-22" d="M1105.35,568.47c-10.3,6.56-22.87,7.92-33.07,14.81-9.15,6.17-14.16,16-20.84,24.49-1.56,2,1.21,4.78,2.78,2.79,7.09-9,12.41-19.43,22.54-25.45,9.66-5.75,21.08-7.18,30.57-13.24C1109.47,570.51,1107.49,567.1,1105.35,568.47Z" transform="translate(-311.51 -237.79)"/><path class="cls-22" d="M1089.24,564.4c-12.35,5.39-25,8.26-37.65,12.57-7.87,2.69-11.41,10.72-16,17.22-1.47,2.07,2,4,3.4,2,2.54-3.59,5-8.82,8.29-11.73,5.09-4.54,12.46-5.39,18.75-7.27a223.54,223.54,0,0,0,25.2-9.38C1093.55,566.79,1091.54,563.39,1089.24,564.4Z" transform="translate(-311.51 -237.79)"/><path class="cls-23" d="M1127.55,1710.85c-6.5,2.49-12.67,6.28-18.47,10.1a73.58,73.58,0,0,0-7.43,5.47c-2.54,2.15-4.67,5.39-7.9,6.81a40,40,0,0,1-5.42,1.55l-12.39,3.47-33.22,9.32L1018,1754.5c-12.42,3.48-24.18,7.15-37.23,6.56-13.43-.62-26.85-1.78-40.27-2.68-2.53-.18-2.52,3.77,0,3.94,13.42.9,26.84,2.06,40.27,2.68,12.14.55,22.87-2.38,34.49-5.64l41.75-11.71c6.84-1.91,13.65-3.89,20.49-5.77,6-1.64,14.66-2.19,19.73-5.8,3.32-2.36,5.85-5.64,9.06-8.13,6.59-5.13,14.53-10.16,22.35-13.16C1131.07,1713.86,1130,1709.91,1127.55,1710.85Z" transform="translate(-311.51 -237.79)"/><path class="cls-23" d="M995.64,1697.59q-8.17,5.85-16.71,11.17c-7.61,4.74-14.89,9.25-22.85,13.41-8.69,4.53-17.34,9.26-25.25,15.09-9.79,7.22-11.27,16.1-10.4,27.79A18.72,18.72,0,0,0,922,1772c1,2.41,4.56.33,3.53-2.06a13.21,13.21,0,0,1-1-4.84,2.14,2.14,0,0,0-.2-.87c-.5-7.1-.52-14.17,4.45-20,3.83-4.51,10-7.28,15.13-10.12,18.27-10.19,36.54-20.78,53.73-33.09C999.68,1699.53,997.71,1696.11,995.64,1697.59Z" transform="translate(-311.51 -237.79)"/><path class="cls-23" d="M954.76,1670.81a209.19,209.19,0,0,1-15.26,42.93c-1.1,2.27,2.3,4.27,3.41,2a212.78,212.78,0,0,0,15.65-43.87C959.15,1669.4,955.35,1668.34,954.76,1670.81Z" transform="translate(-311.51 -237.79)"/><path class="cls-23" d="M1061.68,1684.27c-14.79,7-27.14,19.78-41,28.57a318.3,318.3,0,0,1-45,23.61c-2.32,1-.31,4.39,2,3.4a316.61,316.61,0,0,0,45-23.61c13.73-8.71,26.39-21.63,41-28.57C1066,1686.59,1064,1683.19,1061.68,1684.27Z" transform="translate(-311.51 -237.79)"/><path class="cls-23" d="M907.28,1679.87q-12.56,27.87-27.06,54.79c-1.2,2.23,2.2,4.22,3.4,2q14.52-26.93,27.06-54.79C911.71,1679.56,908.32,1677.56,907.28,1679.87Z" transform="translate(-311.51 -237.79)"/><path class="cls-20" d="M397.92,570l-4.21,4a11.43,11.43,0,0,0-3.37,8.27V837.17c0,5,3.24,9.16,7.48,9.65l501.3,57.56a9.5,9.5,0,0,0,7.44-2.46c2.44-2.16,5.31-4.82,5.31-5.31l3.32-269.7c0-4.42-2.87-8.12-6.63-8.55l-508.15-49.2A3.08,3.08,0,0,0,397.92,570Z" transform="translate(-311.51 -237.79)"/><polygon class="cls-20" points="294.12 562.36 294.12 567.3 288.15 566.7 288.15 726.28 369.86 734.42 375.82 730.09 375.82 570.51 294.12 562.36"/><path class="cls-20" d="M561.1,925.41l-37,32.73v6.69l194.4,20.65,34.24-37.63v-6.7L572,922A14.15,14.15,0,0,0,561.1,925.41Z" transform="translate(-311.51 -237.79)"/><polygon class="cls-18" points="1445.45 603.43 1248.41 603.43 1361.4 489.89 1538.1 489.89 1445.45 603.43"/><polygon class="cls-18" points="1388.73 622 1191.7 622 1304.69 508.45 1481.38 508.45 1388.73 622"/><polygon class="cls-24" points="847.17 769.74 464.9 769.74 546.95 709.85 929.23 709.85 847.17 769.74"/><polygon class="cls-25" points="794.49 785.54 598.15 769.09 717.68 695.76 893.75 710.51 794.49 785.54"/><polygon class="cls-25" points="111.28 832.86 308.31 833.7 195.8 719.67 19.11 718.92 111.28 832.86"/><polygon class="cls-25" points="111.28 806.25 308.31 807.09 195.8 693.06 19.11 692.31 111.28 806.25"/><polygon class="cls-18" points="476.35 796.35 673.38 797.19 560.88 683.16 384.19 682.41 476.35 796.35"/><polygon class="cls-18" points="841.18 775.85 644.15 776.69 756.78 693.15 933.47 692.4 841.18 775.85"/><path class="cls-18" d="M1656.6,868.52l-113,113.54c-1,4.49-7.34,56.77-7.34,56.77h197L1826,925.29l7.34-56.77Z" transform="translate(-311.51 -237.79)"/><path class="cls-21" d="M1721.24,983.3c-57.11.64-114.31,2.26-171.42,1.66-2.79,0-2.79,4.31,0,4.34,57.11.6,114.31-1,171.42-1.66C1724,987.61,1724,983.27,1721.24,983.3Z" transform="translate(-311.51 -237.79)"/><path class="cls-21" d="M956.25,1004a70.87,70.87,0,0,0-17.72-17.55c-2.31-1.59-4.48,2.16-2.19,3.74a65.33,65.33,0,0,1,16.17,16C954.11,1008.48,957.87,1006.31,956.25,1004Z" transform="translate(-311.51 -237.79)"/><path class="cls-21" d="M1052.21,937.88a650.6,650.6,0,0,1-69.26,57c-2.25,1.61-.09,5.37,2.19,3.75a657.73,657.73,0,0,0,70.14-57.68C1057.31,939,1054.24,936,1052.21,937.88Z" transform="translate(-311.51 -237.79)"/><path class="cls-21" d="M1115,1004a1172.88,1172.88,0,0,0-120.37-7.88c-2.8,0-2.8,4.3,0,4.34a1172.88,1172.88,0,0,1,120.37,7.88C1117.76,1008.69,1117.74,1004.35,1115,1004Z" transform="translate(-311.51 -237.79)"/><path class="cls-21" d="M421.25,1042.51l-58.68-77.18c-1.67-2.19-5.44,0-3.74,2.19l58.68,77.17C419.17,1046.89,422.94,1044.73,421.25,1042.51Z" transform="translate(-311.51 -237.79)"/><path class="cls-21" d="M564.07,1043.12q-66.71-1-133.4.88c-2.78.07-2.79,4.41,0,4.34q66.69-1.85,133.4-.88C566.86,1047.5,566.86,1043.16,564.07,1043.12Z" transform="translate(-311.51 -237.79)"/><path class="cls-21" d="M1805.14,915.85A811.23,811.23,0,0,1,1730.59,997c-2,1.93,1,5,3.07,3.07a812.45,812.45,0,0,0,71.8-77.86,2.16,2.16,0,0,0,.91-.73l2.17-3C1810,916.5,1806.68,913.92,1805.14,915.85Z" transform="translate(-311.51 -237.79)"/><path class="cls-21" d="M1774.24,970.15q-16.31,18.38-33.94,35.5c-2,2,1.06,5,3.07,3.07q17.63-17.13,33.94-35.5C1779.16,971.14,1776.1,968.06,1774.24,970.15Z" transform="translate(-311.51 -237.79)"/><path class="cls-21" d="M1681.12,1004H1580.26c-2.79,0-2.79,4.34,0,4.34h100.86C1683.92,1008.29,1683.92,1004,1681.12,1004Z" transform="translate(-311.51 -237.79)"/><path class="cls-21" d="M1682.21,1017h-49.89c-2.79,0-2.8,4.34,0,4.34h49.89C1685,1021.31,1685,1017,1682.21,1017Z" transform="translate(-311.51 -237.79)"/><path class="cls-18" d="M1634.53,808.63l-113,113.54c-1,4.49-7.35,56.77-7.35,56.77h197l92.64-113.54,7.35-56.77Z" transform="translate(-311.51 -237.79)"/><path class="cls-21" d="M1699.16,923.41c-57.1.64-114.3,2.26-171.41,1.66-2.79,0-2.8,4.31,0,4.34,57.11.6,114.31-1,171.41-1.66C1702,927.72,1702,923.38,1699.16,923.41Z" transform="translate(-311.51 -237.79)"/><path class="cls-21" d="M1800.41,811.1q-45.35,58.32-95.87,112.28c-1.9,2,1.16,5.11,3.07,3.07q50.49-53.93,95.87-112.28C1805.17,812,1802.13,808.9,1800.41,811.1Z" transform="translate(-311.51 -237.79)"/><path class="cls-21" d="M1783.06,856a810,810,0,0,1-74.54,81.17c-2,1.93,1,5,3.06,3.07a811.26,811.26,0,0,0,71.81-77.86,2.22,2.22,0,0,0,.91-.73l2.17-3C1787.89,856.61,1784.6,854,1783.06,856Z" transform="translate(-311.51 -237.79)"/><path class="cls-21" d="M1752.17,910.26q-16.32,18.39-33.94,35.5c-2,2,1.06,5,3.06,3.07q17.64-17.13,34-35.5C1757.09,911.25,1754,908.17,1752.17,910.26Z" transform="translate(-311.51 -237.79)"/><path class="cls-21" d="M1822.49,871q-45.35,58.32-95.87,112.28c-1.91,2,1.15,5.11,3.06,3.06q50.5-53.91,95.87-112.27C1827.25,871.88,1824.2,868.79,1822.49,871Z" transform="translate(-311.51 -237.79)"/><path class="cls-21" d="M1659.05,944.06H1558.19c-2.79,0-2.8,4.34,0,4.34h100.86C1661.84,948.4,1661.85,944.06,1659.05,944.06Z" transform="translate(-311.51 -237.79)"/><path class="cls-21" d="M1660.13,957.08h-49.88c-2.79,0-2.8,4.34,0,4.34h49.88C1662.93,961.42,1662.93,957.08,1660.13,957.08Z" transform="translate(-311.51 -237.79)"/><polygon class="cls-18" points="1394.39 704 1197.36 704 1310.35 590.46 1487.04 590.46 1394.39 704"/><path class="cls-18" d="M1676.58,749.59l-113,113.54c-1,4.49-7.35,56.78-7.35,56.78h197l92.65-113.55,7.35-56.77Z" transform="translate(-311.51 -237.79)"/><path class="cls-21" d="M1741.22,864.37c-57.11.64-114.31,2.26-171.42,1.66-2.79,0-2.79,4.31,0,4.34,57.11.6,114.31-1,171.42-1.66C1744,868.68,1744,864.34,1741.22,864.37Z" transform="translate(-311.51 -237.79)"/><path class="cls-21" d="M1842.47,752.07q-45.35,58.3-95.87,112.27c-1.91,2,1.15,5.11,3.06,3.07q50.5-53.92,95.88-112.28C1847.23,753,1844.18,749.86,1842.47,752.07Z" transform="translate(-311.51 -237.79)"/><path class="cls-21" d="M1825.12,796.92a810.13,810.13,0,0,1-74.55,81.17c-2,1.93,1,5,3.07,3.07a810,810,0,0,0,71.8-77.86,2.07,2.07,0,0,0,.91-.72l2.17-3C1829.94,797.57,1826.66,795,1825.12,796.92Z" transform="translate(-311.51 -237.79)"/><path class="cls-21" d="M1794.23,851.22q-16.32,18.39-34,35.5c-2,1.95,1.06,5,3.07,3.07q17.63-17.12,33.94-35.5C1799.14,852.21,1796.08,849.13,1794.23,851.22Z" transform="translate(-311.51 -237.79)"/><path class="cls-18" d="M1445.3,870.48,1332.31,984c-1,4.49-7.35,56.77-7.35,56.77h197l92.65-113.55,7.34-56.77Z" transform="translate(-311.51 -237.79)"/><path class="cls-21" d="M1611.18,873q-45.33,58.32-95.87,112.27c-1.9,2,1.16,5.11,3.07,3.07q50.49-53.92,95.87-112.27C1616,873.85,1612.9,870.76,1611.18,873Z" transform="translate(-311.51 -237.79)"/><path class="cls-21" d="M1593.83,917.82A812.22,812.22,0,0,1,1519.29,999c-2,1.92,1,5,3.06,3.06a810.07,810.07,0,0,0,71.81-77.86,2.19,2.19,0,0,0,.91-.72l2.17-3C1598.66,918.46,1595.38,915.89,1593.83,917.82Z" transform="translate(-311.51 -237.79)"/><polygon class="cls-18" points="1205.16 765.86 1008.13 765.86 1121.12 652.32 1297.81 652.32 1205.16 765.86"/><path class="cls-26" d="M666.67,875.64q-29.4-5.68-59.2-8.53c-2.78-.26-2.76,4.08,0,4.34q29.24,2.79,58,8.37C668.25,880.35,669.42,876.17,666.67,875.64Z" transform="translate(-311.51 -237.79)"/><path class="cls-21" d="M1701.11,885H1600.25c-2.8,0-2.8,4.33,0,4.33h100.86C1703.9,889.36,1703.9,885,1701.11,885Z" transform="translate(-311.51 -237.79)"/><path class="cls-21" d="M1702.19,898H1652.3c-2.79,0-2.79,4.34,0,4.34h49.89C1705,902.38,1705,898,1702.19,898Z" transform="translate(-311.51 -237.79)"/><path class="cls-26" d="M895.93,647.15v218c0,2.79,4.34,2.79,4.34,0v-218C900.27,644.36,895.93,644.35,895.93,647.15Z" transform="translate(-311.51 -237.79)"/><path class="cls-26" d="M402.48,591.84v202.8c0,2.79,4.34,2.8,4.34,0V591.84C406.82,589.05,402.48,589,402.48,591.84Z" transform="translate(-311.51 -237.79)"/><path class="cls-26" d="M688.78,969.33q-72.07-7.91-143.67-19.41c-2.73-.44-3.91,3.74-1.15,4.18q72.15,11.6,144.82,19.56C691.55,974,691.53,969.63,688.78,969.33Z" transform="translate(-311.51 -237.79)"/><polygon class="cls-18" points="1124.32 705.13 927.29 705.13 1040.28 591.59 1216.97 591.59 1124.32 705.13"/><path class="cls-26" d="M660.66,933l-43.48-5.8c-2.75-.37-2.73,4,0,4.34l43.48,5.8C663.42,937.67,663.39,933.33,660.66,933Z" transform="translate(-311.51 -237.79)"/><path class="cls-21" d="M1434.94,942.73q-61,0-122,1.09c-2.79,0-2.8,4.39,0,4.34q61-1.14,122-1.09C1437.73,947.07,1437.73,942.73,1434.94,942.73Z" transform="translate(-311.51 -237.79)"/><path class="cls-21" d="M1387.22,960a468.54,468.54,0,0,0-62.36-1c-2.78.14-2.79,4.48,0,4.34a466.86,466.86,0,0,1,62.36,1C1390,964.59,1390,960.25,1387.22,960Z" transform="translate(-311.51 -237.79)"/><path class="cls-21" d="M1533.9,889.25q-18,20.47-36.07,41c-1.84,2.09,1.22,5.17,3.07,3.07l36.07-41C1538.81,890.22,1535.75,887.15,1533.9,889.25Z" transform="translate(-311.51 -237.79)"/><path class="cls-21" d="M1551.52,858.55c-14.33.29-28.66.19-43-.22q18.87-20.75,36.47-42.57c1.74-2.15-1.31-5.24-3.06-3.07q-18.57,23.1-38.58,44.95a2.13,2.13,0,0,0,0,2.92,2.09,2.09,0,0,0,2.07,2.05q23,.74,46.09.28C1554.31,862.83,1554.32,858.5,1551.52,858.55Z" transform="translate(-311.51 -237.79)"/></svg>