<?xml version="1.0" encoding="UTF-8"?>
<svg id="ElejidoV4_copy" data-name="ElejidoV4 copy" xmlns="http://www.w3.org/2000/svg" viewBox="0 0 214.89 154.64">
  <defs>
    <style>
      .cls-1 {
        font-size: 14px;
        letter-spacing: .1em;
      }

      .cls-1, .cls-2, .cls-3 {
        fill: #fff;
      }

      .cls-1, .cls-3 {
        font-family: Play-Bold, Play;
        font-weight: 700;
      }

      .cls-2 {
        stroke-width: 0px;
      }

      .cls-3 {
        font-size: 12px;
        letter-spacing: .1em;
      }
    </style>
  </defs>
  <g>
    <path class="cls-2" d="M38.5,45.2l7.67,22.08h14.62l-6.32-18.23s-5.07-12,3.73-11.58v-2.32h-27.7v2.35c6.49.94,8,7.7,8,7.7Z"/>
    <path class="cls-2" d="M74.78,45.2l7.29,21-.35,1.08h15.37l-6.33-18.23s-5.07-12,3.72-11.58v-2.32h-27.7v2.35c6.49.94,8,7.7,8,7.7Z"/>
    <path class="cls-2" d="M122.58,53.27l-4.54,14.01h2.8l5.17-16.13s4.17-13.65,10.41-13.65c7.17.21,15.45,5.61,15.45,18.87,0,4.57-.99,8.13-2.57,10.91h13.53c2.09-2.86,3.48-6.45,3.48-10.94,0-2.52,1.88-21.22-29.83-21.22h-22.91v2.35c13.94.24,9,15.8,9,15.8Z"/>
    <polygon class="cls-2" points="74.11 90.76 71.61 98.47 68.94 90.76 54.34 90.76 64.5 120.01 67.66 120.01 73.12 102.85 77.01 90.76 74.11 90.76"/>
    <polygon class="cls-2" points="110.43 90.76 107.93 98.47 105.25 90.76 90.58 90.76 100.72 120 103.96 120 109.43 102.84 113.31 90.76 110.43 90.76"/>
    <path class="cls-2" d="M168.38,113.32l-14.82-22.57h-10.65l15.14,22.68,3.89,4.56c5.33,5.25,12.81,7.88,22.44,7.88l-.22-.66c-6.22-1.71-11.48-5.67-15.78-11.89Z"/>
  </g>
  <text class="cls-1" transform="translate(11.59 83.73) scale(1.02 1)"><tspan x="0" y="0">WRITING RENOVATIONS</tspan></text>
  <text class="cls-3" transform="translate(15.99 145.57) scale(.83 1)"><tspan x="0" y="0">{kick-ass copy crafted with care}</tspan></text>
</svg>