<?xml version="1.0" encoding="utf-8"?>
<!-- Generator: Adobe Illustrator 25.4.1, SVG Export Plug-In . SVG Version: 6.00 Build 0)  -->
<svg version="1.1" id="Layer_1" xmlns="http://www.w3.org/2000/svg" xmlns:xlink="http://www.w3.org/1999/xlink" x="0px" y="0px"
	 viewBox="0 0 39.6 39.6" style="enable-background:new 0 0 39.6 39.6;" xml:space="preserve">
<style type="text/css">
	.st0{fill:none;stroke:#FFFFFF;stroke-width:1.5;stroke-miterlimit:10;}
	.st1{fill:#FFFFFF;}
</style>
<g id="XMLID_1991_">
	<path id="XMLID_1993_" class="st0" d="M19.8,38.8L19.8,38.8c-10.5,0-19-8.5-19-19v0c0-10.5,8.5-19,19-19h0c10.5,0,19,8.5,19,19v0
		C38.8,30.3,30.3,38.8,19.8,38.8z"/>
	<path id="XMLID_1992_" class="st1" d="M15.5,25.4c0,1,0.1,1.7,0.3,2.3c0.2,0.5,0.6,1,1.1,1.5c0.5,0.5,1.2,0.8,1.9,1.1
		c0.8,0.2,1.6,0.4,2.6,0.4c0.9,0,1.7-0.1,2.4-0.3c0.7-0.2,1.6-0.5,2.5-0.9V26c-1.1,0.7-2.2,1.1-3.3,1.1c-0.6,0-1.2-0.1-1.6-0.4
		c-0.4-0.2-0.6-0.5-0.7-0.9c-0.1-0.4-0.2-1.2-0.2-2.4v-5.5h5.1v-3.4h-5.1V9h-3.1c-0.1,1.1-0.4,2-0.8,2.7c-0.4,0.7-0.8,1.3-1.5,1.8
		c-0.6,0.5-1.3,0.9-2.2,1.2v3.1h2.4V25.4z"/>
</g>
</svg>
