<svg id="Layer_1" data-name="Layer 1" xmlns="http://www.w3.org/2000/svg" viewBox="0 0 99.95 100"><defs><style>.cls-1{fill:#fff;}</style></defs><path class="cls-1" d="M25.76,17.63H58a1.51,1.51,0,0,0,1.5-1.53A1.54,1.54,0,0,0,58,14.57H25.76a1.54,1.54,0,0,0-1.5,1.53A1.51,1.51,0,0,0,25.76,17.63Z" transform="translate(-0.02)"/><path class="cls-1" d="M40.91,27.61a1.52,1.52,0,0,0,1.51,1.53H74.24a1.51,1.51,0,1,0,0-3H42.42A1.51,1.51,0,0,0,40.91,27.61Z" transform="translate(-0.02)"/><path class="cls-1" d="M25.76,29.14h8.59a1.51,1.51,0,1,0,0-3H25.76a1.51,1.51,0,0,0,0,3Z" transform="translate(-0.02)"/><path class="cls-1" d="M70.25,37.64H54.72a1.53,1.53,0,1,0,0,3H70.25a1.53,1.53,0,1,0,0-3Z" transform="translate(-0.02)"/><path class="cls-1" d="M25.76,40.69H46.63a1.53,1.53,0,1,0,0-3H25.76a1.53,1.53,0,0,0,0,3Z" transform="translate(-0.02)"/><path class="cls-1" d="M62.12,75.27H74.24a1.53,1.53,0,0,0,1.52-1.53,1.52,1.52,0,0,0-1.52-1.48H62.12a1.5,1.5,0,0,0-1.51,1.48A1.51,1.51,0,0,0,62.12,75.27Z" transform="translate(-0.02)"/><path class="cls-1" d="M25.76,75.27H54a1.52,1.52,0,0,0,1.53-1.53A1.5,1.5,0,0,0,54,72.26H25.76a1.49,1.49,0,0,0-1.5,1.48A1.51,1.51,0,0,0,25.76,75.27Z" transform="translate(-0.02)"/><path class="cls-1" d="M25.76,86.78h11a1.48,1.48,0,0,0,1.51-1.48,1.51,1.51,0,0,0-1.51-1.53H25.76a1.5,1.5,0,0,0-1.5,1.53A1.47,1.47,0,0,0,25.76,86.78Z" transform="translate(-0.02)"/><path class="cls-1" d="M63.65,83.77H44.78a1.5,1.5,0,0,0-1.5,1.53,1.47,1.47,0,0,0,1.5,1.48H63.65a1.47,1.47,0,0,0,1.5-1.48A1.5,1.5,0,0,0,63.65,83.77Z" transform="translate(-0.02)"/><path class="cls-1" d="M97.68,47.21a1.59,1.59,0,0,0-1.35-.81h-10V16.1a.16.16,0,0,0,0-.09,1.22,1.22,0,0,0-.07-.41s0-.09,0-.13A2.19,2.19,0,0,0,85.9,15L71.33.45a1.11,1.11,0,0,0-.45-.27S70.8.09,70.75.09s-.27,0-.41-.09H15.15a1.52,1.52,0,0,0-1.51,1.53v47.8L.9,55.17A1.55,1.55,0,0,0,.9,58l12.74,5.85V98.47A1.51,1.51,0,0,0,15.15,100H84.84a1.51,1.51,0,0,0,1.51-1.53V66.72h10a1.53,1.53,0,0,0,1.35-.85A20.11,20.11,0,0,0,97.68,47.21ZM20.77,59c-.06.45-.16.86-.24,1.31-.05.18-.12.4-.18.67s-.23.76-.37,1.17c-.08.22-.15.45-.24.68a3.92,3.92,0,0,0-.16.36l-6.7-3.06a10.12,10.12,0,0,0,0-7.11l6.7-3c0,.13.11.22.16.36s.16.45.24.67.25.76.37,1.17c.06.22.13.45.18.67.08.46.18.86.24,1.31a4.61,4.61,0,0,1,.07.58,12.21,12.21,0,0,1,.13,1.8s0,0,0,0h0a12.4,12.4,0,0,1-.13,1.85A4.39,4.39,0,0,1,20.77,59Zm3.13-4c0-.17,0-.4,0-.62s-.06-.41-.09-.63c-.07-.49-.18-1-.29-1.53,0-.23-.09-.45-.14-.63a18.87,18.87,0,0,0-.58-1.89,1.15,1.15,0,0,0-.07-.22l0,0H87.52c.07.18.16.36.25.54s.22.54.31.81.23.67.34,1,.16.54.23.81l.2,1c0,.27.09.54.13.81s0,.36,0,.53ZM71.78,5.17l4.7,4.72,4.7,4.68h-9.4ZM16.68,3.06H68.75v13a1.51,1.51,0,0,0,1.5,1.53H83.31V46.4h-63a.08.08,0,0,0-.07.05,1.28,1.28,0,0,0-.44.09.08.08,0,0,0-.07,0l-3,1.35ZM10.12,54.27a7.19,7.19,0,0,1,0,4.54l-5-2.25ZM83.31,96.94H16.68V65.2l3,1.39h0a2.21,2.21,0,0,0,.59.13h63Zm3.76-33.27H22.66l0,0c0-.05.05-.14.07-.18.23-.63.41-1.31.58-1.94.05-.18.1-.4.14-.63.11-.5.22-1,.29-1.57,0-.18.07-.41.09-.63a5.87,5.87,0,0,0,0-.59H89.05v.09c0,.36-.11.72-.18,1.13a6.52,6.52,0,0,1-.14.72c-.07.4-.2.81-.31,1.21a6.52,6.52,0,0,1-.18.63,14.84,14.84,0,0,1-.7,1.8Zm8.32,0H90.82l0,0c0-.05,0-.14,0-.18a15.93,15.93,0,0,0,.59-1.94,4.5,4.5,0,0,0,.15-.63c.12-.5.21-1,.29-1.57a3.91,3.91,0,0,0,.07-.63,13.81,13.81,0,0,0,.14-2l0-.1s0,0,0-.08A14.3,14.3,0,0,0,92,54.41a5.26,5.26,0,0,0-.07-.63c-.08-.49-.17-1-.29-1.53a4.5,4.5,0,0,0-.15-.63,13.38,13.38,0,0,0-.59-1.89.29.29,0,0,0-.07-.22v0h4.57A16.89,16.89,0,0,1,95.39,63.67Z" transform="translate(-0.02)"/></svg>